<svg width="372" height="279" viewBox="0 0 372 279" fill="none" xmlns="http://www.w3.org/2000/svg">
<rect x="1.83829" y="0.787842" width="370" height="278" rx="8" fill="white"/>
<rect x="2.83829" y="1.78784" width="368" height="276" rx="7" stroke="#666666" stroke-opacity="0.08" stroke-width="2"/>
<path d="M1.83829 0.787842C10.8383 21.7878 140.338 14.7878 213.338 116.288C286.338 217.788 275.838 267.288 367.338 274.288" stroke="#F5F9FF" stroke-width="4"/>
<path d="M65.8863 145.036L61.2063 161.788H57.2463L54.1023 149.86L50.8143 161.788L46.8783 161.812L42.3663 145.036H45.9663L48.9183 158.044L52.3263 145.036H56.0703L59.2863 157.972L62.2623 145.036H65.8863ZM73.9842 162.004C72.7042 162.004 71.5522 161.724 70.5282 161.164C69.5042 160.588 68.6962 159.78 68.1042 158.74C67.5282 157.7 67.2402 156.5 67.2402 155.14C67.2402 153.78 67.5362 152.58 68.1282 151.54C68.7362 150.5 69.5602 149.7 70.6002 149.14C71.6402 148.564 72.8002 148.276 74.0802 148.276C75.3602 148.276 76.5202 148.564 77.5602 149.14C78.6002 149.7 79.4162 150.5 80.0082 151.54C80.6162 152.58 80.9202 153.78 80.9202 155.14C80.9202 156.5 80.6082 157.7 79.9842 158.74C79.3762 159.78 78.5442 160.588 77.4882 161.164C76.4482 161.724 75.2802 162.004 73.9842 162.004ZM73.9842 159.076C74.5922 159.076 75.1602 158.932 75.6882 158.644C76.2322 158.34 76.6642 157.892 76.9842 157.3C77.3042 156.708 77.4642 155.988 77.4642 155.14C77.4642 153.876 77.1282 152.908 76.4562 152.236C75.8002 151.548 74.9922 151.204 74.0322 151.204C73.0722 151.204 72.2642 151.548 71.6082 152.236C70.9682 152.908 70.6482 153.876 70.6482 155.14C70.6482 156.404 70.9602 157.38 71.5842 158.068C72.2242 158.74 73.0242 159.076 73.9842 159.076ZM86.7449 150.556C87.1769 149.852 87.7369 149.3 88.4249 148.9C89.1289 148.5 89.9289 148.3 90.8249 148.3V151.828H89.9369C88.8809 151.828 88.0809 152.076 87.5369 152.572C87.0089 153.068 86.7449 153.932 86.7449 155.164V161.788H83.3849V148.492H86.7449V150.556ZM97 151.252V157.684C97 158.132 97.104 158.46 97.312 158.668C97.536 158.86 97.904 158.956 98.416 158.956H99.976V161.788H97.864C95.032 161.788 93.616 160.412 93.616 157.66V151.252H92.032V148.492H93.616V145.204H97V148.492H99.976V151.252H97ZM109.881 148.3C110.889 148.3 111.785 148.524 112.569 148.972C113.353 149.404 113.961 150.052 114.393 150.916C114.841 151.764 115.065 152.788 115.065 153.988V161.788H111.705V154.444C111.705 153.388 111.441 152.58 110.913 152.02C110.385 151.444 109.665 151.156 108.753 151.156C107.825 151.156 107.089 151.444 106.545 152.02C106.017 152.58 105.753 153.388 105.753 154.444V161.788H102.393V144.028H105.753V150.148C106.185 149.572 106.761 149.124 107.481 148.804C108.201 148.468 109.001 148.3 109.881 148.3ZM129.883 162.004C128.603 162.004 127.451 161.724 126.427 161.164C125.403 160.588 124.595 159.78 124.003 158.74C123.427 157.7 123.139 156.5 123.139 155.14C123.139 153.78 123.435 152.58 124.027 151.54C124.635 150.5 125.459 149.7 126.499 149.14C127.539 148.564 128.699 148.276 129.979 148.276C131.259 148.276 132.419 148.564 133.459 149.14C134.499 149.7 135.315 150.5 135.907 151.54C136.515 152.58 136.819 153.78 136.819 155.14C136.819 156.5 136.507 157.7 135.883 158.74C135.275 159.78 134.443 160.588 133.387 161.164C132.347 161.724 131.179 162.004 129.883 162.004ZM129.883 159.076C130.491 159.076 131.059 158.932 131.587 158.644C132.131 158.34 132.563 157.892 132.883 157.3C133.203 156.708 133.363 155.988 133.363 155.14C133.363 153.876 133.027 152.908 132.355 152.236C131.699 151.548 130.891 151.204 129.931 151.204C128.971 151.204 128.163 151.548 127.507 152.236C126.867 152.908 126.547 153.876 126.547 155.14C126.547 156.404 126.859 157.38 127.483 158.068C128.123 158.74 128.923 159.076 129.883 159.076ZM145.379 151.252H143.051V161.788H139.643V151.252H138.131V148.492H139.643V147.82C139.643 146.188 140.107 144.988 141.035 144.22C141.963 143.452 143.363 143.092 145.235 143.14V145.972C144.419 145.956 143.851 146.092 143.531 146.38C143.211 146.668 143.051 147.188 143.051 147.94V148.492H145.379V151.252ZM171.54 145.036V161.788H168.18V150.892L163.692 161.788H161.148L156.636 150.892V161.788H153.276V145.036H157.092L162.42 157.492L167.748 145.036H171.54ZM180.765 162.004C179.485 162.004 178.333 161.724 177.309 161.164C176.285 160.588 175.477 159.78 174.885 158.74C174.309 157.7 174.021 156.5 174.021 155.14C174.021 153.78 174.317 152.58 174.909 151.54C175.517 150.5 176.341 149.7 177.381 149.14C178.421 148.564 179.581 148.276 180.861 148.276C182.141 148.276 183.301 148.564 184.341 149.14C185.381 149.7 186.197 150.5 186.789 151.54C187.397 152.58 187.701 153.78 187.701 155.14C187.701 156.5 187.389 157.7 186.765 158.74C186.157 159.78 185.325 160.588 184.269 161.164C183.229 161.724 182.061 162.004 180.765 162.004ZM180.765 159.076C181.373 159.076 181.941 158.932 182.469 158.644C183.013 158.34 183.445 157.892 183.765 157.3C184.085 156.708 184.245 155.988 184.245 155.14C184.245 153.876 183.909 152.908 183.237 152.236C182.581 151.548 181.773 151.204 180.813 151.204C179.853 151.204 179.045 151.548 178.389 152.236C177.749 152.908 177.429 153.876 177.429 155.14C177.429 156.404 177.741 157.38 178.365 158.068C179.005 158.74 179.805 159.076 180.765 159.076ZM197.534 148.3C199.118 148.3 200.398 148.804 201.374 149.812C202.35 150.804 202.838 152.196 202.838 153.988V161.788H199.478V154.444C199.478 153.388 199.214 152.58 198.686 152.02C198.158 151.444 197.438 151.156 196.526 151.156C195.598 151.156 194.862 151.444 194.318 152.02C193.79 152.58 193.526 153.388 193.526 154.444V161.788H190.166V148.492H193.526V150.148C193.974 149.572 194.542 149.124 195.23 148.804C195.934 148.468 196.702 148.3 197.534 148.3ZM218.393 154.852C218.393 155.332 218.361 155.764 218.297 156.148H208.577C208.657 157.108 208.993 157.86 209.585 158.404C210.177 158.948 210.905 159.22 211.769 159.22C213.017 159.22 213.905 158.684 214.433 157.612H218.057C217.673 158.892 216.937 159.948 215.849 160.78C214.761 161.596 213.425 162.004 211.841 162.004C210.561 162.004 209.409 161.724 208.385 161.164C207.377 160.588 206.585 159.78 206.009 158.74C205.449 157.7 205.169 156.5 205.169 155.14C205.169 153.764 205.449 152.556 206.009 151.516C206.569 150.476 207.353 149.676 208.361 149.116C209.369 148.556 210.529 148.276 211.841 148.276C213.105 148.276 214.233 148.548 215.225 149.092C216.233 149.636 217.009 150.412 217.553 151.42C218.113 152.412 218.393 153.556 218.393 154.852ZM214.913 153.892C214.897 153.028 214.585 152.34 213.977 151.828C213.369 151.3 212.625 151.036 211.745 151.036C210.913 151.036 210.209 151.292 209.633 151.804C209.073 152.3 208.729 152.996 208.601 153.892H214.913ZM233.566 148.492L225.334 168.076H221.758L224.638 161.452L219.31 148.492H223.078L226.51 157.78L229.99 148.492H233.566Z" fill="#222222"/>
<path d="M50.5583 205.788H52.0943L48.0783 194.7H46.3983L42.3663 205.788H43.9023L44.7983 203.308H49.6623L50.5583 205.788ZM49.2463 202.124H45.2143L47.2303 196.492L49.2463 202.124ZM54.1235 205.788H55.5795V198.22H57.4195V197.02H55.5795V196.396C55.5795 195.26 56.0115 194.78 57.3235 194.78V193.564C55.0835 193.564 54.1235 194.444 54.1235 196.396V197.02H52.9875V198.22H54.1235V205.788ZM59.4372 203.388C59.4372 205.148 60.3172 205.788 61.8692 205.788H63.1812V204.556H62.1092C61.2132 204.556 60.8932 204.252 60.8932 203.388V198.22H63.1812V197.02H60.8932V194.812H59.4372V197.02H58.3012V198.22H59.4372V203.388ZM68.6733 198.108C70.1773 198.108 71.4573 199.052 71.4413 200.764H65.9053C66.0653 199.052 67.2493 198.108 68.6733 198.108ZM72.7693 203.084H71.2013C70.8813 204.028 70.0493 204.7 68.7373 204.7C67.2493 204.7 66.0013 203.724 65.8893 201.948H72.8973C72.9293 201.644 72.9453 201.388 72.9453 201.068C72.9453 198.668 71.2813 196.876 68.7373 196.876C66.1773 196.876 64.4013 198.62 64.4013 201.388C64.4013 204.172 66.2413 205.932 68.7373 205.932C70.9133 205.932 72.3213 204.684 72.7693 203.084ZM76.3232 201.02C76.3232 198.988 77.3792 198.364 78.7712 198.364H79.1552V196.86C77.7632 196.86 76.8192 197.468 76.3232 198.444V197.02H74.8672V205.788H76.3232V201.02ZM91.4055 203.404C91.3415 200.268 86.2535 201.404 86.2535 199.324C86.2535 198.62 86.8935 198.108 87.9655 198.108C89.1335 198.108 89.8055 198.748 89.8695 199.628H91.3255C91.2295 197.916 89.9495 196.876 88.0135 196.876C86.0615 196.876 84.7975 197.98 84.7975 199.324C84.7975 202.588 89.9815 201.452 89.9815 203.404C89.9815 204.124 89.3415 204.7 88.1895 204.7C86.9575 204.7 86.2055 204.06 86.1255 203.212H84.6215C84.7175 204.812 86.1575 205.932 88.2055 205.932C90.1415 205.932 91.4055 204.844 91.4055 203.404ZM101.237 197.02H99.7809V201.836C99.7809 203.724 98.7729 204.652 97.2689 204.652C95.7969 204.652 94.8209 203.74 94.8209 201.964V197.02H93.3809V202.156C93.3809 204.668 94.9649 205.916 96.9809 205.916C98.1489 205.916 99.2209 205.404 99.7809 204.492V205.788H101.237V197.02ZM103.151 201.388C103.151 204.172 104.927 205.932 107.423 205.932C109.599 205.932 111.023 204.716 111.471 202.972H109.903C109.583 204.076 108.719 204.7 107.423 204.7C105.823 204.7 104.639 203.564 104.639 201.388C104.639 199.244 105.823 198.108 107.423 198.108C108.719 198.108 109.599 198.78 109.903 199.836H111.471C111.023 197.996 109.599 196.876 107.423 196.876C104.927 196.876 103.151 198.636 103.151 201.388ZM112.87 201.388C112.87 204.172 114.646 205.932 117.142 205.932C119.318 205.932 120.742 204.716 121.19 202.972H119.622C119.302 204.076 118.438 204.7 117.142 204.7C115.542 204.7 114.358 203.564 114.358 201.388C114.358 199.244 115.542 198.108 117.142 198.108C118.438 198.108 119.318 198.78 119.622 199.836H121.19C120.742 197.996 119.318 196.876 117.142 196.876C114.646 196.876 112.87 198.636 112.87 201.388ZM126.861 198.108C128.365 198.108 129.645 199.052 129.629 200.764H124.093C124.253 199.052 125.437 198.108 126.861 198.108ZM130.957 203.084H129.389C129.069 204.028 128.237 204.7 126.925 204.7C125.437 204.7 124.189 203.724 124.077 201.948H131.085C131.117 201.644 131.133 201.388 131.133 201.068C131.133 198.668 129.469 196.876 126.925 196.876C124.365 196.876 122.589 198.62 122.589 201.388C122.589 204.172 124.429 205.932 126.925 205.932C129.101 205.932 130.509 204.684 130.957 203.084ZM139.359 203.404C139.295 200.268 134.207 201.404 134.207 199.324C134.207 198.62 134.847 198.108 135.919 198.108C137.087 198.108 137.759 198.748 137.823 199.628H139.279C139.183 197.916 137.903 196.876 135.967 196.876C134.015 196.876 132.751 197.98 132.751 199.324C132.751 202.588 137.935 201.452 137.935 203.404C137.935 204.124 137.295 204.7 136.143 204.7C134.911 204.7 134.159 204.06 134.079 203.212H132.575C132.671 204.812 134.111 205.932 136.159 205.932C138.095 205.932 139.359 204.844 139.359 203.404ZM147.718 203.404C147.654 200.268 142.566 201.404 142.566 199.324C142.566 198.62 143.206 198.108 144.278 198.108C145.446 198.108 146.118 198.748 146.182 199.628H147.638C147.542 197.916 146.262 196.876 144.326 196.876C142.374 196.876 141.11 197.98 141.11 199.324C141.11 202.588 146.294 201.452 146.294 203.404C146.294 204.124 145.654 204.7 144.502 204.7C143.27 204.7 142.518 204.06 142.438 203.212H140.934C141.03 204.812 142.47 205.932 144.518 205.932C146.454 205.932 147.718 204.844 147.718 203.404ZM150.045 205.788H151.501V198.22H153.341V197.02H151.501V196.396C151.501 195.26 151.933 194.78 153.245 194.78V193.564C151.005 193.564 150.045 194.444 150.045 196.396V197.02H148.909V198.22H150.045V205.788ZM162.815 197.02H161.359V201.836C161.359 203.724 160.351 204.652 158.847 204.652C157.375 204.652 156.399 203.74 156.399 201.964V197.02H154.959V202.156C154.959 204.668 156.543 205.916 158.559 205.916C159.727 205.916 160.799 205.404 161.359 204.492V205.788H162.815V197.02ZM165.273 205.788H166.729V193.948H165.273V205.788ZM172.933 201.372C172.933 204.092 174.741 205.932 177.077 205.932C178.693 205.932 179.829 205.1 180.357 204.156V205.788H181.829V197.02H180.357V198.62C179.845 197.708 178.725 196.876 177.093 196.876C174.741 196.876 172.933 198.636 172.933 201.372ZM180.357 201.388C180.357 203.452 178.981 204.652 177.381 204.652C175.781 204.652 174.421 203.436 174.421 201.372C174.421 199.308 175.781 198.14 177.381 198.14C178.981 198.14 180.357 199.356 180.357 201.388ZM183.745 201.388C183.745 204.172 185.521 205.932 188.017 205.932C190.193 205.932 191.617 204.716 192.065 202.972H190.497C190.177 204.076 189.313 204.7 188.017 204.7C186.417 204.7 185.233 203.564 185.233 201.388C185.233 199.244 186.417 198.108 188.017 198.108C189.313 198.108 190.193 198.78 190.497 199.836H192.065C191.617 197.996 190.193 196.876 188.017 196.876C185.521 196.876 183.745 198.636 183.745 201.388ZM193.464 201.388C193.464 204.172 195.24 205.932 197.736 205.932C199.912 205.932 201.336 204.716 201.784 202.972H200.216C199.896 204.076 199.032 204.7 197.736 204.7C196.136 204.7 194.952 203.564 194.952 201.388C194.952 199.244 196.136 198.108 197.736 198.108C199.032 198.108 199.912 198.78 200.216 199.836H201.784C201.336 197.996 199.912 196.876 197.736 196.876C195.24 196.876 193.464 198.636 193.464 201.388ZM207.455 198.108C208.959 198.108 210.239 199.052 210.223 200.764H204.687C204.847 199.052 206.031 198.108 207.455 198.108ZM211.551 203.084H209.983C209.663 204.028 208.831 204.7 207.519 204.7C206.031 204.7 204.783 203.724 204.671 201.948H211.679C211.711 201.644 211.727 201.388 211.727 201.068C211.727 198.668 210.063 196.876 207.519 196.876C204.959 196.876 203.183 198.62 203.183 201.388C203.183 204.172 205.023 205.932 207.519 205.932C209.695 205.932 211.103 204.684 211.551 203.084ZM219.952 203.404C219.888 200.268 214.8 201.404 214.8 199.324C214.8 198.62 215.44 198.108 216.512 198.108C217.68 198.108 218.352 198.748 218.416 199.628H219.872C219.776 197.916 218.496 196.876 216.56 196.876C214.608 196.876 213.344 197.98 213.344 199.324C213.344 202.588 218.528 201.452 218.528 203.404C218.528 204.124 217.888 204.7 216.736 204.7C215.504 204.7 214.752 204.06 214.672 203.212H213.168C213.264 204.812 214.704 205.932 216.752 205.932C218.688 205.932 219.952 204.844 219.952 203.404ZM228.312 203.404C228.248 200.268 223.16 201.404 223.16 199.324C223.16 198.62 223.8 198.108 224.872 198.108C226.04 198.108 226.712 198.748 226.776 199.628H228.232C228.136 197.916 226.856 196.876 224.92 196.876C222.968 196.876 221.704 197.98 221.704 199.324C221.704 202.588 226.888 201.452 226.888 203.404C226.888 204.124 226.248 204.7 225.096 204.7C223.864 204.7 223.112 204.06 223.032 203.212H221.528C221.624 204.812 223.064 205.932 225.112 205.932C227.048 205.932 228.312 204.844 228.312 203.404ZM234.953 203.388C234.953 205.148 235.833 205.788 237.385 205.788H238.697V204.556H237.625C236.729 204.556 236.409 204.252 236.409 203.388V198.22H238.697V197.02H236.409V194.812H234.953V197.02H233.817V198.22H234.953V203.388ZM240.461 205.788H241.917V200.94C241.917 199.052 242.941 198.124 244.429 198.124C245.901 198.124 246.877 199.036 246.877 200.828V205.788H248.317V200.62C248.317 198.108 246.765 196.86 244.813 196.86C243.581 196.86 242.493 197.356 241.917 198.284V193.948H240.461V205.788ZM254.423 198.108C255.927 198.108 257.207 199.052 257.191 200.764H251.655C251.815 199.052 252.999 198.108 254.423 198.108ZM258.519 203.084H256.951C256.631 204.028 255.799 204.7 254.487 204.7C252.999 204.7 251.751 203.724 251.639 201.948H258.647C258.679 201.644 258.695 201.388 258.695 201.068C258.695 198.668 257.031 196.876 254.487 196.876C251.927 196.876 250.151 198.62 250.151 201.388C250.151 204.172 251.991 205.932 254.487 205.932C256.663 205.932 258.071 204.684 258.519 203.084ZM267.033 205.788H268.473V200.62C268.473 198.108 266.921 196.86 264.889 196.86C263.705 196.86 262.649 197.356 262.073 198.268V197.02H260.617V205.788H262.073V200.94C262.073 199.052 263.097 198.124 264.585 198.124C266.057 198.124 267.033 199.036 267.033 200.828V205.788ZM276.573 198.652V193.948H275.117V205.788H276.573V204.172C277.117 205.132 278.253 205.932 279.853 205.932C282.205 205.932 284.013 204.092 284.013 201.372C284.013 198.636 282.221 196.876 279.853 196.876C278.301 196.876 277.133 197.676 276.573 198.652ZM282.525 201.372C282.525 203.436 281.165 204.652 279.549 204.652C277.965 204.652 276.573 203.452 276.573 201.388C276.573 199.356 277.965 198.14 279.549 198.14C281.165 198.14 282.525 199.308 282.525 201.372ZM294.25 201.388C294.25 198.62 292.314 196.876 289.818 196.876C287.338 196.876 285.386 198.62 285.386 201.388C285.386 204.172 287.274 205.932 289.754 205.932C292.25 205.932 294.25 204.172 294.25 201.388ZM286.874 201.388C286.874 199.18 288.266 198.14 289.802 198.14C291.306 198.14 292.762 199.18 292.762 201.388C292.762 203.612 291.274 204.652 289.754 204.652C288.234 204.652 286.874 203.612 286.874 201.388ZM304.484 201.388C304.484 198.62 302.548 196.876 300.052 196.876C297.572 196.876 295.62 198.62 295.62 201.388C295.62 204.172 297.508 205.932 299.988 205.932C302.484 205.932 304.484 204.172 304.484 201.388ZM297.108 201.388C297.108 199.18 298.5 198.14 300.036 198.14C301.54 198.14 302.996 199.18 302.996 201.388C302.996 203.612 301.508 204.652 299.988 204.652C298.468 204.652 297.108 203.612 297.108 201.388ZM306.398 205.788H307.854V201.916L311.294 205.788H313.278L309.134 201.388L313.262 197.02H311.23L307.854 200.908V193.948H306.398V205.788ZM43.3423 231.788H44.7983V224.22H46.6383V223.02H44.7983V222.396C44.7983 221.26 45.2303 220.78 46.5423 220.78V219.564C44.3023 219.564 43.3423 220.444 43.3423 222.396V223.02H42.2063V224.22H43.3423V231.788ZM49.7919 227.02C49.7919 224.988 50.8479 224.364 52.2399 224.364H52.6239V222.86C51.2319 222.86 50.2879 223.468 49.7919 224.444V223.02H48.3359V231.788H49.7919V227.02ZM62.6247 227.388C62.6247 224.62 60.6887 222.876 58.1927 222.876C55.7127 222.876 53.7607 224.62 53.7607 227.388C53.7607 230.172 55.6487 231.932 58.1287 231.932C60.6247 231.932 62.6247 230.172 62.6247 227.388ZM55.2487 227.388C55.2487 225.18 56.6407 224.14 58.1767 224.14C59.6807 224.14 61.1367 225.18 61.1367 227.388C61.1367 229.612 59.6487 230.652 58.1287 230.652C56.6087 230.652 55.2487 229.612 55.2487 227.388ZM77.195 231.788H78.635V226.62C78.635 224.108 77.083 222.86 75.083 222.86C73.739 222.86 72.491 223.548 71.979 224.812C71.403 223.5 70.203 222.86 68.763 222.86C67.611 222.86 66.571 223.356 65.995 224.284V223.02H64.539V231.788H65.995V226.956C65.995 225.068 67.003 224.124 68.475 224.124C69.915 224.124 70.875 225.036 70.875 226.828V231.788H72.315V226.956C72.315 225.068 73.323 224.124 74.795 224.124C76.235 224.124 77.195 225.036 77.195 226.828V231.788ZM89.017 224.108C90.521 224.108 91.801 225.052 91.785 226.764H86.249C86.409 225.052 87.593 224.108 89.017 224.108ZM93.113 229.084H91.545C91.225 230.028 90.393 230.7 89.081 230.7C87.593 230.7 86.345 229.724 86.233 227.948H93.241C93.273 227.644 93.289 227.388 93.289 227.068C93.289 224.668 91.625 222.876 89.081 222.876C86.521 222.876 84.745 224.62 84.745 227.388C84.745 230.172 86.585 231.932 89.081 231.932C91.257 231.932 92.665 230.684 93.113 229.084ZM99.7869 231.788H101.435L98.6029 227.356L101.419 223.02H99.8989L97.9149 226.268L95.8349 223.02H94.1869L97.0189 227.436L94.1869 231.788H95.7069L97.7069 228.524L99.7869 231.788ZM102.323 227.388C102.323 230.172 104.099 231.932 106.595 231.932C108.771 231.932 110.195 230.716 110.643 228.972H109.075C108.755 230.076 107.891 230.7 106.595 230.7C104.995 230.7 103.811 229.564 103.811 227.388C103.811 225.244 104.995 224.108 106.595 224.108C107.891 224.108 108.771 224.78 109.075 225.836H110.643C110.195 223.996 108.771 222.876 106.595 222.876C104.099 222.876 102.323 224.636 102.323 227.388ZM112.586 231.788H114.042V219.948H112.586V231.788ZM124.299 223.02H122.843V227.836C122.843 229.724 121.835 230.652 120.331 230.652C118.859 230.652 117.883 229.74 117.883 227.964V223.02H116.443V228.156C116.443 230.668 118.027 231.916 120.043 231.916C121.211 231.916 122.283 231.404 122.843 230.492V231.788H124.299V223.02ZM133.062 229.404C132.998 226.268 127.91 227.404 127.91 225.324C127.91 224.62 128.55 224.108 129.622 224.108C130.79 224.108 131.462 224.748 131.526 225.628H132.982C132.886 223.916 131.606 222.876 129.67 222.876C127.718 222.876 126.454 223.98 126.454 225.324C126.454 228.588 131.638 227.452 131.638 229.404C131.638 230.124 130.998 230.7 129.846 230.7C128.614 230.7 127.862 230.06 127.782 229.212H126.278C126.374 230.812 127.814 231.932 129.862 231.932C131.798 231.932 133.062 230.844 133.062 229.404ZM135.117 231.788H136.573V223.02H135.117V231.788ZM135.869 221.596C136.397 221.596 136.829 221.164 136.829 220.604C136.829 220.044 136.397 219.612 135.869 219.612C135.309 219.612 134.877 220.044 134.877 220.604C134.877 221.164 135.309 221.596 135.869 221.596ZM138.015 223.02L141.455 231.788H143.151L146.591 223.02H145.039L142.319 230.444L139.583 223.02H138.015ZM151.751 224.108C153.255 224.108 154.535 225.052 154.519 226.764H148.983C149.143 225.052 150.327 224.108 151.751 224.108ZM155.847 229.084H154.279C153.959 230.028 153.127 230.7 151.815 230.7C150.327 230.7 149.079 229.724 148.967 227.948H155.975C156.007 227.644 156.023 227.388 156.023 227.068C156.023 224.668 154.359 222.876 151.815 222.876C149.255 222.876 147.479 224.62 147.479 227.388C147.479 230.172 149.319 231.932 151.815 231.932C153.991 231.932 155.399 230.684 155.847 229.084ZM161.667 227.372C161.667 230.092 163.475 231.932 165.827 231.932C167.427 231.932 168.563 231.116 169.091 230.14V231.788H170.563V219.948H169.091V224.588C168.483 223.58 167.219 222.876 165.843 222.876C163.475 222.876 161.667 224.636 161.667 227.372ZM169.091 227.388C169.091 229.452 167.715 230.652 166.115 230.652C164.515 230.652 163.155 229.436 163.155 227.372C163.155 225.308 164.515 224.14 166.115 224.14C167.715 224.14 169.091 225.356 169.091 227.388ZM176.751 224.108C178.255 224.108 179.535 225.052 179.519 226.764H173.983C174.143 225.052 175.327 224.108 176.751 224.108ZM180.847 229.084H179.279C178.959 230.028 178.127 230.7 176.815 230.7C175.327 230.7 174.079 229.724 173.967 227.948H180.975C181.007 227.644 181.023 227.388 181.023 227.068C181.023 224.668 179.359 222.876 176.815 222.876C174.255 222.876 172.479 224.62 172.479 227.388C172.479 230.172 174.319 231.932 176.815 231.932C178.991 231.932 180.399 230.684 180.847 229.084ZM182.401 227.372C182.401 230.092 184.209 231.932 186.545 231.932C188.161 231.932 189.297 231.1 189.825 230.156V231.788H191.297V223.02H189.825V224.62C189.313 223.708 188.193 222.876 186.561 222.876C184.209 222.876 182.401 224.636 182.401 227.372ZM189.825 227.388C189.825 229.452 188.449 230.652 186.849 230.652C185.249 230.652 183.889 229.436 183.889 227.372C183.889 225.308 185.249 224.14 186.849 224.14C188.449 224.14 189.825 225.356 189.825 227.388ZM193.758 231.788H195.214V219.948H193.758V231.788ZM203.999 229.404C203.935 226.268 198.847 227.404 198.847 225.324C198.847 224.62 199.487 224.108 200.559 224.108C201.727 224.108 202.399 224.748 202.463 225.628H203.919C203.823 223.916 202.543 222.876 200.607 222.876C198.655 222.876 197.391 223.98 197.391 225.324C197.391 228.588 202.575 227.452 202.575 229.404C202.575 230.124 201.935 230.7 200.783 230.7C199.551 230.7 198.799 230.06 198.719 229.212H197.215C197.311 230.812 198.751 231.932 200.799 231.932C202.735 231.932 203.999 230.844 203.999 229.404ZM217.04 223.02C217.12 221.532 216.048 220.412 214.288 220.412C212.48 220.412 211.344 221.468 211.344 222.892C211.344 223.708 211.616 224.332 212.304 225.132C210.56 225.82 209.68 227.052 209.68 228.588C209.68 230.652 211.264 231.98 213.584 231.98C215.152 231.98 216.352 231.436 217.424 230.316L218.88 231.788H220.784L218.272 229.276C218.496 228.956 218.704 228.636 218.912 228.268L220.224 225.996H218.656L217.568 227.82C217.472 227.98 217.376 228.124 217.28 228.268L213.952 224.924C213.168 224.092 212.8 223.548 212.8 222.892C212.8 222.156 213.36 221.612 214.224 221.612C215.008 221.612 215.616 222.108 215.584 223.02H217.04ZM213.584 230.732C212.128 230.732 211.136 229.788 211.136 228.54C211.136 227.42 211.792 226.588 213.184 226.06L216.464 229.356C215.632 230.284 214.736 230.732 213.584 230.732ZM227.87 224.636V223.02H226.414V235.948H227.87V230.172C228.414 231.068 229.55 231.932 231.15 231.932C233.502 231.932 235.31 230.092 235.31 227.372C235.31 224.636 233.502 222.876 231.15 222.876C229.55 222.876 228.398 223.708 227.87 224.636ZM233.822 227.372C233.822 229.436 232.462 230.652 230.846 230.652C229.262 230.652 227.87 229.452 227.87 227.388C227.87 225.356 229.262 224.14 230.846 224.14C232.462 224.14 233.822 225.308 233.822 227.372ZM238.683 227.02C238.683 224.988 239.739 224.364 241.131 224.364H241.515V222.86C240.123 222.86 239.179 223.468 238.683 224.444V223.02H237.227V231.788H238.683V227.02ZM243.195 231.788H244.651V223.02H243.195V231.788ZM243.947 221.596C244.475 221.596 244.907 221.164 244.907 220.604C244.907 220.044 244.475 219.612 243.947 219.612C243.387 219.612 242.955 220.044 242.955 220.604C242.955 221.164 243.387 221.596 243.947 221.596ZM246.589 227.388C246.589 230.172 248.365 231.932 250.861 231.932C253.037 231.932 254.461 230.716 254.909 228.972H253.341C253.021 230.076 252.157 230.7 250.861 230.7C249.261 230.7 248.077 229.564 248.077 227.388C248.077 225.244 249.261 224.108 250.861 224.108C252.157 224.108 253.037 224.78 253.341 225.836H254.909C254.461 223.996 253.037 222.876 250.861 222.876C248.365 222.876 246.589 224.636 246.589 227.388ZM256.852 231.788H258.308V223.02H256.852V231.788ZM257.604 221.596C258.132 221.596 258.564 221.164 258.564 220.604C258.564 220.044 258.132 219.612 257.604 219.612C257.044 219.612 256.612 220.044 256.612 220.604C256.612 221.164 257.044 221.596 257.604 221.596ZM267.205 231.788H268.645V226.62C268.645 224.108 267.093 222.86 265.061 222.86C263.877 222.86 262.821 223.356 262.245 224.268V223.02H260.789V231.788H262.245V226.94C262.245 225.052 263.269 224.124 264.757 224.124C266.229 224.124 267.205 225.036 267.205 226.828V231.788ZM270.479 227.372C270.479 230.092 272.287 231.932 274.639 231.932C276.239 231.932 277.375 231.084 277.903 230.14V231.98C277.903 233.852 276.735 234.844 275.183 234.844C273.743 234.844 272.703 234.124 272.383 233.068H270.943C271.231 234.94 272.879 236.108 275.183 236.108C277.759 236.108 279.375 234.396 279.375 231.98V223.02H277.903V224.62C277.391 223.676 276.239 222.876 274.639 222.876C272.287 222.876 270.479 224.636 270.479 227.372ZM277.903 227.388C277.903 229.452 276.527 230.652 274.927 230.652C273.327 230.652 271.967 229.436 271.967 227.372C271.967 225.308 273.327 224.14 274.927 224.14C276.527 224.14 277.903 225.356 277.903 227.388Z" fill="#666666"/>
<path d="M67.5346 40.8839C67.3468 40.9496 67.0556 41.1093 66.896 41.2314C66.7457 41.3535 63.8814 45.4668 60.5382 50.3783L54.4622 59.2998L52.7436 59.328L51.025 59.3468L51.072 59.0463C51.1002 58.8772 51.2786 57.1962 51.457 55.3086C51.6355 53.421 51.8045 51.7024 51.8327 51.4864C51.889 51.1014 51.9172 51.0732 52.5558 50.7352C53.1944 50.3971 54.0959 49.627 54.4716 49.0823L54.6594 48.81L57.3734 49.0917C59.2141 49.2701 60.1814 49.3359 60.3504 49.2795C60.8763 49.1011 60.9139 48.2935 60.4067 48.0775C60.2847 48.0211 58.9511 47.8615 57.4298 47.7112C54.3683 47.4201 54.1335 47.4295 53.6827 47.9272C53.5325 48.0869 53.1944 48.4531 52.922 48.7442C52.6403 49.0541 52.2365 49.3734 51.9078 49.5331C51.072 49.9369 50.7809 50.1905 50.6306 50.6319C50.5367 50.876 50.3207 52.7167 50.0765 55.1865L49.6727 59.3468H49.2313H48.7806L48.8275 58.9899C48.8557 58.8021 49.1562 55.8627 49.4849 52.4631C49.823 49.0541 50.1423 46.1993 50.1892 46.096C50.3301 45.833 50.5931 45.7297 51.1002 45.7297C51.3443 45.7297 53.8518 45.9645 56.6597 46.2462C61.1862 46.697 61.806 46.7346 62.0314 46.6219C62.4822 46.3871 62.4634 45.6452 62.0032 45.448C61.8811 45.401 60.2283 45.2132 58.3125 45.0254C56.4061 44.8376 53.9645 44.6028 52.8845 44.4901C51.7951 44.3868 50.7527 44.3304 50.5273 44.3586C49.6727 44.4901 48.9402 45.2226 48.7712 46.1335C48.7148 46.4059 48.4519 48.8851 48.1795 51.6461L47.6912 56.6703L46.5079 56.7267C45.4937 56.7642 45.2589 56.8112 44.8739 57.0084C44.0756 57.4216 43.6249 58.2011 43.6155 59.2059C43.6061 59.6567 43.5873 59.6849 43.1647 59.9572C42.9299 60.1075 42.5918 60.4174 42.4228 60.6428C41.7936 61.4692 41.8218 60.7461 41.85 74.288L41.8781 86.534L42.1035 87.0223C42.3759 87.6421 43.1459 88.3652 43.7563 88.6094C44.2165 88.7878 44.7048 88.7878 64.0411 88.7878H83.8563L84.3446 88.5625C84.9269 88.2995 85.6218 87.5952 85.9036 86.9754C86.1008 86.5528 86.1102 86.4025 86.1383 82.9372L86.1665 79.3498H86.514C87.3216 79.3498 88.0353 78.946 88.2795 78.345C88.3828 78.1008 88.411 77.218 88.411 74.0908C88.411 70.3437 88.4016 70.1184 88.2231 69.7709C87.9414 69.2168 87.547 68.982 86.7957 68.9445L86.1571 68.9069V65.5073C86.1571 62.6524 86.1289 62.0232 86.0069 61.6006C85.8378 61.0372 85.4434 60.3986 85.0771 60.1168C84.8611 59.9478 84.8424 59.8633 84.8424 59.2341C84.8424 58.3983 84.5606 57.7315 84.0159 57.2807C83.6215 56.9614 82.9266 56.7173 82.3819 56.7173H82.0156L83.1144 55.1114C83.7248 54.2192 84.2695 53.3083 84.3446 53.0641C84.57 52.3129 84.3258 51.4207 83.7436 50.8854C83.6027 50.7539 82.3631 49.8806 80.992 48.9508C79.6209 48.0211 76.4749 45.8706 73.9957 44.1802C71.5164 42.4898 69.3658 41.0435 69.2156 40.9684C68.8306 40.7712 67.9666 40.7243 67.5346 40.8839ZM68.6991 42.2644C69.2719 42.5649 82.5791 51.7024 82.8045 51.9372C83.2177 52.3786 83.152 52.604 82.241 53.9563C81.7809 54.6231 80.7854 56.1069 80.0059 57.2526L78.5973 59.3374L78.0526 59.3468H77.5173L78.6161 57.7409C79.2171 56.8488 79.7618 55.966 79.8369 55.7594C79.9778 55.3368 79.9214 55.0175 79.527 54.0878C79.311 53.5713 79.264 53.3271 79.2453 52.4631C79.2265 51.6273 79.1795 51.3925 79.0199 51.139C78.8884 50.9136 77.7239 50.0684 75.0193 48.2277C72.9251 46.8003 71.1126 45.5888 70.9811 45.5419C70.5679 45.3822 70.1359 45.4386 69.3752 45.7485C68.7366 46.0114 68.5206 46.049 67.6379 46.0678C66.4546 46.096 66.1165 46.218 65.7127 46.7909C65.5531 47.0069 63.5997 49.8712 61.3646 53.1487C59.1296 56.4262 57.2513 59.1684 57.195 59.2341C57.1199 59.3092 56.9039 59.3468 56.594 59.328L56.1244 59.2998L61.8436 50.8948C64.9896 46.2744 67.6567 42.4146 67.76 42.3207C67.9854 42.1423 68.4173 42.1141 68.6991 42.2644ZM74.2774 49.3734L77.846 51.8057L77.9023 52.8294C77.9493 53.6276 78.015 53.9939 78.2122 54.5104C78.3531 54.8672 78.4752 55.2335 78.4846 55.3086C78.494 55.3931 77.9117 56.3322 77.1886 57.4028L75.8739 59.3374L74.7 59.3468H73.5167L73.4134 58.7176C73.2631 57.8536 72.6527 56.6703 72.0141 55.9754C71.338 55.2429 70.6149 54.7733 69.6476 54.4352C67.6848 53.7591 65.3371 54.3132 63.8908 55.797C63.0832 56.6234 62.4728 57.7973 62.3225 58.8115L62.2568 59.2998L60.5382 59.328C59.1577 59.3468 58.829 59.328 58.8854 59.2341C58.9323 59.1684 60.7542 56.4825 62.9423 53.2614L66.9242 47.4201H67.8069C68.4831 47.4201 68.8493 47.3638 69.4128 47.1853C69.8166 47.0538 70.211 46.913 70.2768 46.866C70.3613 46.8097 70.4834 46.8097 70.5585 46.8566C70.643 46.9036 72.3146 48.0305 74.2774 49.3734ZM68.9245 55.6373C69.6851 55.8439 70.3143 56.2008 70.8872 56.7736C71.4788 57.3653 71.8357 57.9945 72.0141 58.7645L72.1456 59.3468H67.8821H63.6091L63.6748 58.9899C64.1068 56.614 66.5767 55.0269 68.9245 55.6373ZM47.5222 58.4171C47.494 58.5767 47.4658 58.8584 47.4658 59.0275V59.3468H46.245H45.0241V59.0087C45.0241 58.7645 45.0993 58.6049 45.2965 58.3983C45.5688 58.1353 45.597 58.1259 46.5737 58.1259H47.5879L47.5222 58.4171ZM83.0862 58.3232C83.3586 58.5298 83.6121 59.2153 83.4713 59.328C83.4243 59.3656 82.6824 59.3843 81.8184 59.3656L80.2501 59.3374L80.6445 58.7364L81.039 58.1259H81.9405C82.7106 58.1259 82.8796 58.1541 83.0862 58.3232ZM84.0629 61.0935C84.6545 61.5631 84.7484 61.8542 84.7484 63.169V64.3241H63.9941H43.2398V63.1502C43.2398 62.3144 43.2774 61.8918 43.3713 61.7133C43.5403 61.3846 43.9723 60.9808 44.2729 60.8587C44.4231 60.8024 51.2317 60.7742 64.1068 60.7836L83.6966 60.8024L84.0629 61.0935ZM84.7484 67.3292V68.9257H81.208C78.3719 68.9257 77.5361 68.9539 77.0571 69.0666C75.4137 69.461 74.005 70.7194 73.3852 72.3534C73.1223 73.0578 73.0284 74.4946 73.1974 75.2271C73.62 77.049 75.0099 78.5328 76.8599 79.1244C77.3013 79.2653 77.8836 79.2935 81.0671 79.331L84.7484 79.3686V80.9557V82.5428H67.8633C51.0532 82.5428 50.9687 82.5428 50.7997 82.7306C50.5837 82.9748 50.5837 83.4255 50.7997 83.6697C50.9687 83.8575 51.0532 83.8575 67.8633 83.8575H84.7484V85.0502C84.7484 86.1208 84.7203 86.2898 84.5325 86.6279C84.4104 86.8345 84.1568 87.0881 83.9502 87.2101L83.5746 87.4261H64.0129C42.2162 87.4261 44.0756 87.4825 43.5403 86.7875C43.2962 86.4682 43.2868 86.4025 43.2586 85.1535L43.2211 83.8575H45.2026C47.062 83.8575 47.1935 83.8481 47.3719 83.6697C47.4752 83.5664 47.5597 83.3598 47.5597 83.2001C47.5597 83.0405 47.4752 82.8339 47.3719 82.7306C47.1935 82.5522 47.062 82.5428 45.212 82.5428H43.2398V74.1377V65.7327H63.9941H84.7484V67.3292ZM86.9835 74.1096L87.0023 77.9411H82.4288C79.743 77.9411 77.677 77.8942 77.4422 77.8472C75.9678 77.4998 74.7845 76.2507 74.5028 74.7388C74.1271 72.6821 75.6485 70.6161 77.7333 70.3437C78.0526 70.2968 80.2595 70.2686 82.6355 70.278L86.9554 70.2874L86.9835 74.1096Z" fill="#4086F4"/>
<path d="M77.6114 71.4519C76.4281 71.8182 75.5454 73.1235 75.6674 74.3256C75.8177 75.8188 76.9446 76.8518 78.4003 76.8518C80.8232 76.8612 82.0534 74.1096 80.4757 72.2314C80.3442 72.0717 79.978 71.8088 79.6587 71.6585C79.1797 71.4143 78.9731 71.3674 78.466 71.3768C78.1279 71.3768 77.7429 71.4143 77.6114 71.4519ZM78.9637 72.8136C79.9498 73.2268 80.1 74.6073 79.2267 75.2553C78.8698 75.5276 78.1091 75.5558 77.7241 75.321C76.7756 74.72 76.8319 73.3113 77.8368 72.8606C78.297 72.654 78.5505 72.6446 78.9637 72.8136Z" fill="#4086F4"/>
</svg>
