<svg width="19" height="16" viewBox="0 0 19 16" fill="none" xmlns="http://www.w3.org/2000/svg">
<path d="M18.7279 0.865253L10.777 15.521C10.7104 15.6438 10.5976 15.7445 10.4562 15.8073C10.3147 15.8702 10.1526 15.8916 9.99517 15.8683C9.83774 15.8451 9.69388 15.7784 9.58609 15.6787C9.4783 15.579 9.41266 15.4519 9.39943 15.3174L8.72721 8.50446L0.662976 7.93655C0.503705 7.92537 0.35331 7.86991 0.235313 7.77885C0.117315 7.68778 0.0383687 7.56625 0.0108202 7.43325C-0.0167283 7.30025 0.0086748 7.16328 0.0830565 7.04378C0.157438 6.92427 0.276604 6.82896 0.421917 6.77276L17.7695 0.0555206C17.9036 0.00359728 18.0533 -0.0124159 18.1985 0.00963144C18.3437 0.0316788 18.4774 0.0907308 18.5817 0.178858C18.686 0.266985 18.7559 0.379967 18.782 0.502632C18.8081 0.625296 18.7892 0.75177 18.7277 0.86507L18.7279 0.865253Z" fill="#FA7436"/>
</svg>
