<svg width="1171" height="416" viewBox="0 0 1171 416" fill="none" xmlns="http://www.w3.org/2000/svg">
<path d="M1170 16C1170 7.16346 1162.84 0 1154 0H16C7.16345 0 0 7.16344 0 16V400C0 408.837 7.16345 416 16 416H1154C1162.84 416 1170 408.837 1170 400V16Z" fill="#FA7436"/>
<mask id="mask0_1_399" style="mask-type:alpha" maskUnits="userSpaceOnUse" x="3" y="55" width="480" height="361">
<rect x="482.5" y="55.5" width="360" height="479" transform="rotate(90 482.5 55.5)" fill="url(#paint0_linear_1_399)" stroke="#6246E5"/>
</mask>
<g mask="url(#mask0_1_399)">
<path d="M258.535 391.202C258.535 460.635 202.328 516.92 132.996 516.92C63.6627 516.92 7.45556 460.635 7.45556 391.202C7.45559 321.769 63.6628 265.484 132.996 265.484C202.328 265.485 258.535 321.77 258.535 391.202Z" stroke="#E5E5E5"/>
<path d="M286.728 381.237C286.728 458.925 223.839 521.901 146.263 521.901C68.687 521.901 5.79732 458.925 5.79711 381.237C5.79712 303.55 68.6868 240.572 146.263 240.572C223.839 240.572 286.728 303.55 286.728 381.237Z" stroke="#E5E5E5"/>
<path d="M310.775 372.935C310.774 457.96 241.945 526.885 157.042 526.885C72.1389 526.885 3.31004 457.96 3.30981 372.935C3.30981 287.909 72.1388 218.983 157.042 218.983C241.946 218.983 310.775 287.909 310.775 372.935Z" stroke="#E5E5E5"/>
<path d="M338.139 364.63C338.139 456.076 264.112 530.206 172.797 530.206C81.4825 530.206 7.45635 456.075 7.45629 364.63C7.4563 273.184 81.4825 199.054 172.797 199.054C264.112 199.054 338.139 273.184 338.139 364.63Z" stroke="#E5E5E5"/>
<path d="M364.673 356.741C364.673 454.378 285.634 533.527 188.137 533.527C90.6401 533.527 11.602 454.378 11.602 356.741C11.6021 259.104 90.6402 179.955 188.137 179.955C285.634 179.955 364.673 259.104 364.673 356.741Z" stroke="#E5E5E5"/>
<path d="M399.5 343.456C399.5 450.724 312.665 537.68 205.551 537.68C98.4366 537.68 11.6018 450.723 11.6016 343.456C11.6016 236.188 98.4365 149.232 205.551 149.231C312.665 149.231 399.5 236.188 399.5 343.456Z" stroke="#E5E5E5"/>
</g>
<path d="M1164.18 25.68C1154.92 20.15 1139.65 33.47 1135.77 37.1C1136.55 34.7979 1137.91 32.733 1139.71 31.1C1139.75 31.0669 1139.78 31.0243 1139.81 30.9756C1139.83 30.9269 1139.84 30.8736 1139.84 30.82C1139.84 30.7684 1139.82 30.7176 1139.8 30.6722C1139.78 30.6268 1139.74 30.5883 1139.7 30.56C1138.84 29.9802 1137.83 29.6607 1136.8 29.64C1137.33 28.9837 1138.01 28.4669 1138.79 28.1342C1139.57 27.8014 1140.41 27.6627 1141.26 27.73C1141.32 27.7392 1141.38 27.7299 1141.44 27.7032C1141.5 27.6765 1141.54 27.6337 1141.58 27.58C1141.61 27.5253 1141.62 27.4632 1141.62 27.4C1141.62 27.3368 1141.61 27.2747 1141.58 27.22C1141.17 26.6016 1140.6 26.1021 1139.94 25.7719C1139.28 25.4418 1138.54 25.2928 1137.8 25.34C1139.11 24.34 1142.08 23.98 1143.28 23.94C1143.34 23.9394 1143.4 23.9201 1143.46 23.8846C1143.51 23.8491 1143.55 23.7988 1143.58 23.74C1143.6 23.6827 1143.61 23.6197 1143.6 23.558C1143.59 23.4963 1143.57 23.4381 1143.53 23.39C1142.37 22.0431 1140.73 21.2061 1138.96 21.06C1140.62 19.06 1145.54 18.46 1145.59 18.45C1145.66 18.4446 1145.72 18.4162 1145.78 18.3692C1145.83 18.3222 1145.86 18.2592 1145.88 18.19C1145.89 18.1513 1145.9 18.1097 1145.9 18.0676C1145.9 18.0255 1145.89 17.9837 1145.88 17.9447C1145.86 17.9057 1145.84 17.8702 1145.81 17.8402C1145.78 17.8102 1145.75 17.7864 1145.71 17.77C1144.15 16.7761 1142.38 16.1567 1140.54 15.96C1142.54 13.48 1148.9 11.96 1148.97 11.96C1149.03 11.9441 1149.1 11.9078 1149.14 11.8559C1149.19 11.804 1149.22 11.7391 1149.23 11.67C1149.23 11.6018 1149.22 11.5328 1149.19 11.4721C1149.16 11.4114 1149.11 11.3619 1149.05 11.33C1144.79 9.10999 1139.59 11.27 1139.35 11.33C1133.35 14.33 1133.08 24.28 1133.71 31.17C1131.35 22.8 1126.22 9.69 1117.15 9C1116.85 9 1109.78 8.99998 1105.9 13.57C1105.86 13.6256 1105.84 13.692 1105.84 13.76C1105.84 13.828 1105.86 13.8944 1105.9 13.95C1105.93 14.0098 1105.98 14.0578 1106.05 14.0881C1106.11 14.1184 1106.18 14.1295 1106.25 14.12C1106.34 14.12 1114.79 12.75 1118.25 14.85C1116.14 15.9444 1114.32 17.5329 1112.96 19.48C1112.92 19.5387 1112.89 19.6085 1112.89 19.68C1112.89 19.7515 1112.92 19.8213 1112.96 19.88C1113 19.9372 1113.05 19.9804 1113.12 20.0037C1113.19 20.027 1113.26 20.0292 1113.33 20.01C1113.4 20.01 1119.67 18.26 1122.55 19.96C1121.53 20.4515 1120.63 21.1409 1119.88 21.9875C1119.14 22.8342 1118.57 23.821 1118.22 24.89C1118.2 24.9508 1118.19 25.0162 1118.21 25.0784C1118.23 25.1406 1118.26 25.1967 1118.31 25.24C1118.35 25.2851 1118.41 25.3158 1118.47 25.3283C1118.53 25.3408 1118.6 25.3344 1118.66 25.31C1120.15 24.76 1124.03 23.67 1126.03 24.41C1125.11 24.6779 1124.28 25.192 1123.63 25.8968C1122.98 26.6017 1122.53 27.4706 1122.34 28.41C1122.33 28.4726 1122.33 28.5366 1122.36 28.5949C1122.38 28.6532 1122.42 28.7035 1122.48 28.74C1122.53 28.7716 1122.59 28.7882 1122.66 28.7882C1122.72 28.7882 1122.78 28.7716 1122.84 28.74C1123.83 28.2307 1124.93 27.9801 1126.04 28.0116C1127.15 28.0431 1128.24 28.3556 1129.2 28.92C1127.95 29.4256 1126.88 30.2927 1126.13 31.41C1126.1 31.4562 1126.09 31.5077 1126.09 31.56C1126.09 31.6123 1126.1 31.6638 1126.13 31.71C1126.15 31.7593 1126.17 31.8038 1126.21 31.8401C1126.25 31.8765 1126.3 31.9038 1126.35 31.92C1129.29 32.9759 1131.91 34.7781 1133.95 37.15C1129.01 35.24 1112.25 29.49 1106.37 37.15C1106.23 37.36 1102.92 42.35 1104.37 47.24C1104.39 47.3056 1104.43 47.3636 1104.48 47.4064C1104.53 47.4493 1104.6 47.4749 1104.67 47.48H1104.72C1104.78 47.4736 1104.83 47.4518 1104.88 47.4168C1104.93 47.3817 1104.97 47.3346 1105 47.28C1105 47.21 1107.92 40.77 1110.94 39.28C1110.76 41.2525 1111.04 43.2396 1111.78 45.08C1111.8 45.1458 1111.84 45.2025 1111.9 45.242C1111.96 45.2816 1112.03 45.3019 1112.1 45.3C1112.17 45.2989 1112.24 45.2751 1112.3 45.232C1112.35 45.1889 1112.4 45.1287 1112.42 45.06C1112.42 45.01 1114.07 39.93 1116.53 38.62C1116.42 39.5555 1116.49 40.5034 1116.75 41.4094C1117.01 42.3155 1117.44 43.1618 1118.03 43.9C1118.07 43.949 1118.12 43.9855 1118.18 44.005C1118.24 44.0245 1118.31 44.0262 1118.37 44.01C1118.43 43.9975 1118.48 43.9671 1118.53 43.9226C1118.57 43.8782 1118.6 43.8216 1118.62 43.76C1118.91 42.5 1119.88 39.4 1121.25 38.26C1121.04 39.0276 1121.04 39.837 1121.24 40.605C1121.45 41.373 1121.86 42.0719 1122.43 42.63C1122.47 42.672 1122.53 42.7006 1122.59 42.713C1122.65 42.7253 1122.72 42.7208 1122.78 42.7C1122.84 42.6765 1122.89 42.637 1122.93 42.5858C1122.97 42.5347 1122.99 42.4739 1123 42.41C1123.1 41.5062 1123.43 40.6416 1123.94 39.8907C1124.45 39.1399 1125.14 38.5253 1125.95 38.1C1125.75 39.192 1125.87 40.3184 1126.31 41.34C1126.33 41.388 1126.36 41.4303 1126.4 41.4634C1126.44 41.4965 1126.49 41.5194 1126.54 41.53C1126.59 41.5411 1126.64 41.5406 1126.69 41.5285C1126.74 41.5164 1126.79 41.4929 1126.83 41.46C1127.62 40.8403 1128.48 40.3197 1129.4 39.91C1129 40.2794 1128.69 40.7354 1128.49 41.2432C1128.29 41.7509 1128.21 42.2971 1128.26 42.84C1128.34 43.7932 1128.79 44.6752 1129.53 45.2921C1130.26 45.9089 1131.2 46.2103 1132.16 46.13C1132.94 46.0612 1133.68 45.7341 1134.26 45.2C1135.11 47.42 1138.36 58.06 1132.86 79.2C1125.44 81.43 1124.26 83.77 1123.23 85.84C1122.89 86.5921 1122.45 87.2899 1121.91 87.91C1121.38 88.649 1121.07 89.5177 1121.01 90.4209C1120.95 91.324 1121.14 92.2267 1121.56 93.03C1122.93 95.89 1127.44 99.03 1141.1 97.88C1150.5 97.08 1156.29 94.88 1158.31 91.34C1158.72 90.6619 1158.96 89.8975 1159.03 89.1076C1159.09 88.3177 1158.96 87.5241 1158.67 86.79C1156.67 82.01 1151.55 78.14 1146.67 77.67C1145.89 69.96 1143.5 51.89 1137.84 44.67C1138.08 44.695 1138.32 44.695 1138.56 44.67C1139.51 44.5861 1140.39 44.1274 1141.01 43.3946C1141.63 42.6617 1141.93 41.7144 1141.85 40.76C1141.78 40.0427 1141.51 39.3607 1141.05 38.8026C1140.6 38.2444 1139.99 37.8358 1139.3 37.63C1141.22 37.4626 1143.16 37.6422 1145.03 38.16C1145.07 38.1821 1145.12 38.1935 1145.17 38.1935C1145.22 38.1935 1145.27 38.1821 1145.32 38.16C1145.36 38.1322 1145.4 38.094 1145.42 38.0487C1145.45 38.0033 1145.46 37.9523 1145.47 37.9C1145.49 36.6563 1145.14 35.4337 1144.47 34.39C1145.48 34.4859 1146.46 34.8332 1147.31 35.4005C1148.16 35.9679 1148.85 36.7375 1149.33 37.64C1149.35 37.6962 1149.4 37.7437 1149.45 37.7773C1149.5 37.8108 1149.56 37.829 1149.63 37.83C1149.69 37.829 1149.75 37.8108 1149.8 37.7773C1149.86 37.7437 1149.9 37.6962 1149.93 37.64C1150.29 36.8305 1150.43 35.9376 1150.32 35.0568C1150.21 34.176 1149.87 33.3406 1149.33 32.64C1151.21 33.19 1153.53 36.04 1154.33 37.24C1154.36 37.2896 1154.41 37.3295 1154.46 37.3557C1154.52 37.382 1154.58 37.3938 1154.64 37.39C1154.7 37.3806 1154.76 37.3528 1154.81 37.3102C1154.86 37.2676 1154.89 37.2119 1154.91 37.15C1155.2 36.1583 1155.3 35.1178 1155.19 34.0882C1155.09 33.0587 1154.78 32.0602 1154.29 31.15C1157.36 31.45 1161.14 36.06 1161.18 36.15C1161.22 36.2045 1161.28 36.2442 1161.35 36.2638C1161.42 36.2835 1161.49 36.2821 1161.56 36.26C1161.63 36.2377 1161.68 36.1931 1161.72 36.1332C1161.76 36.0733 1161.78 36.0017 1161.78 35.93C1161.79 33.7374 1161.27 31.5743 1160.28 29.62C1163.99 29.9 1169.62 35.4 1169.68 35.46C1169.73 35.5085 1169.79 35.5403 1169.86 35.5511C1169.93 35.5618 1169.99 35.551 1170.06 35.52C1170.12 35.4914 1170.17 35.4443 1170.2 35.3852C1170.24 35.3261 1170.25 35.2579 1170.25 35.19C1169.82 29.62 1164.43 25.85 1164.18 25.68ZM1146.29 81.29C1146.16 82.3407 1145.72 83.3314 1145.05 84.1437C1144.37 84.9559 1143.47 85.5553 1142.46 85.87C1139.62 86.87 1135.61 86.21 1133.71 84.43C1133.32 84.1157 1133.03 83.6976 1132.87 83.2246C1132.72 82.7517 1132.7 82.2436 1132.82 81.76L1133.06 80.88C1135.52 81.7941 1138.14 82.1989 1140.76 82.07C1142.8 81.9877 1144.73 81.1208 1146.15 79.65C1146.24 80.56 1146.28 81.14 1146.29 81.29ZM1146.06 78.69C1142.63 83.3 1134.8 80.79 1133.23 80.22C1133.69 78.52 1134.09 76.8866 1134.44 75.32C1136.2 76.411 1138.28 76.8956 1140.35 76.7C1142.22 76.5011 1144.03 75.8972 1145.65 74.93C1145.82 76.39 1145.96 77.67 1146.06 78.69ZM1145.56 74.2C1139.56 77.8 1135.44 75.2 1134.56 74.61C1134.9 73.04 1135.18 71.54 1135.43 70.11C1137.04 70.6306 1138.74 70.831 1140.43 70.7C1141.97 70.5775 1143.47 70.1166 1144.82 69.35C1145.15 71.08 1145.37 72.77 1145.56 74.2ZM1135.56 69.43C1135.81 67.93 1136.01 66.49 1136.16 65.14C1137.48 65.624 1138.89 65.8117 1140.3 65.69C1141.61 65.5788 1142.88 65.1866 1144.03 64.54C1144.3 65.93 1144.53 67.3 1144.74 68.63C1143.35 69.3932 1141.82 69.8586 1140.24 69.9963C1138.66 70.1341 1137.08 69.9412 1135.58 69.43H1135.56ZM1136.23 64.43C1136.36 63.15 1136.46 61.93 1136.52 60.78C1137.65 61.1552 1138.84 61.298 1140.03 61.2C1141.12 61.1022 1142.19 60.7605 1143.14 60.2C1143.41 61.39 1143.67 62.6 1143.9 63.79C1142.75 64.4597 1141.47 64.8656 1140.14 64.978C1138.82 65.0904 1137.49 64.9067 1136.25 64.44L1136.23 64.43ZM1136.56 60.07C1136.56 59 1136.62 57.99 1136.61 57.07C1137.35 57.2044 1138.1 57.2414 1138.85 57.18C1140 57.1021 1141.11 56.7 1142.05 56.02C1142.38 57.18 1142.69 58.37 1142.97 59.57C1142 60.1134 1140.93 60.4405 1139.83 60.5286C1138.72 60.6167 1137.61 60.4636 1136.58 60.08L1136.56 60.07ZM1136.61 56.34C1136.61 55.15 1136.53 54.06 1136.44 53.06C1136.97 53.1817 1137.53 53.2188 1138.08 53.17C1139.07 53.0806 1140.02 52.7361 1140.84 52.17C1141.19 53.17 1141.53 54.17 1141.84 55.26C1141.09 55.7956 1140.24 56.1694 1139.35 56.3571C1138.45 56.5449 1137.52 56.5424 1136.63 56.35L1136.61 56.34ZM1136.38 52.34C1136.29 51.5 1136.19 50.73 1136.08 50.03C1136.39 50.0609 1136.71 50.0609 1137.03 50.03C1137.95 49.9656 1138.83 49.6162 1139.55 49.03C1139.92 49.82 1140.26 50.66 1140.6 51.53C1140.01 51.9788 1139.32 52.2861 1138.59 52.4283C1137.86 52.5704 1137.11 52.5436 1136.4 52.35L1136.38 52.34ZM1135.97 49.34C1135.82 48.54 1135.67 47.85 1135.52 47.26C1135.72 47.28 1135.93 47.28 1136.14 47.26C1136.89 47.2083 1137.6 46.885 1138.14 46.35C1138.55 46.9946 1138.93 47.6624 1139.28 48.35C1138.84 48.7508 1138.31 49.0486 1137.74 49.2216C1137.18 49.3946 1136.57 49.4384 1135.99 49.35L1135.97 49.34ZM1135.32 46.54C1135.13 45.88 1134.96 45.39 1134.83 45.05H1135.26C1135.79 45.0013 1136.3 44.8338 1136.76 44.56C1137.11 44.9435 1137.45 45.3475 1137.76 45.77C1137.46 46.102 1137.08 46.3491 1136.65 46.4861C1136.23 46.6231 1135.77 46.6451 1135.34 46.55L1135.32 46.54ZM1136.63 43.85C1136.3 44.075 1135.93 44.2324 1135.54 44.3131C1135.15 44.3938 1134.75 44.3961 1134.36 44.32C1133.74 44.1929 1133.18 43.8691 1132.76 43.397C1132.34 42.9248 1132.08 42.3295 1132.03 41.7C1131.99 41.3221 1132.03 40.9412 1132.15 40.5791C1132.26 40.217 1132.44 39.8809 1132.69 39.59C1132.93 39.287 1133.23 39.0367 1133.58 38.8545C1133.92 38.6723 1134.3 38.5619 1134.69 38.53H1135.12C1135.49 38.5487 1135.85 38.6404 1136.19 38.8C1136.65 39.0188 1137.05 39.3556 1137.34 39.7768C1137.64 40.198 1137.81 40.6887 1137.86 41.2C1137.91 41.7107 1137.82 42.2257 1137.61 42.6929C1137.4 43.1601 1137.06 43.5627 1136.65 43.86L1136.63 43.85ZM1139.63 12.02C1140.91 11.523 1142.26 11.2099 1143.63 11.09C1145.06 10.9411 1146.51 11.1084 1147.87 11.58C1145.78 12.16 1140.87 13.74 1139.63 16.16C1139.59 16.211 1139.58 16.2699 1139.58 16.33C1139.58 16.3901 1139.59 16.4491 1139.63 16.5C1139.66 16.5503 1139.7 16.5909 1139.76 16.6174C1139.81 16.6439 1139.87 16.6552 1139.93 16.65C1141.53 16.6882 1143.09 17.1174 1144.49 17.9C1142.71 18.23 1139.06 19.13 1138 21.19C1137.97 21.2402 1137.95 21.2971 1137.95 21.355C1137.95 21.4129 1137.97 21.4698 1138 21.52C1138.03 21.5714 1138.07 21.6134 1138.12 21.6416C1138.18 21.6698 1138.24 21.6831 1138.3 21.68C1139.84 21.6871 1141.32 22.2561 1142.47 23.28C1140.95 23.41 1137.52 23.9 1136.64 25.57C1136.6 25.624 1136.59 25.6864 1136.59 25.75C1136.59 25.8136 1136.6 25.876 1136.64 25.93C1136.67 25.9847 1136.72 26.0268 1136.79 26.0501C1136.85 26.0735 1136.91 26.0769 1136.98 26.06C1137.6 25.9346 1138.25 25.96 1138.86 26.1339C1139.47 26.3078 1140.03 26.6253 1140.5 27.06C1139.53 27.077 1138.59 27.3417 1137.76 27.8286C1136.93 28.3156 1136.24 29.0083 1135.76 29.84C1135.72 29.8929 1135.71 29.9533 1135.71 30.015C1135.71 30.0766 1135.72 30.1371 1135.76 30.19C1135.79 30.2419 1135.84 30.2834 1135.9 30.3098C1135.95 30.3363 1136.01 30.3467 1136.08 30.34C1137.02 30.2747 1137.97 30.461 1138.82 30.88C1137.12 32.5227 1135.83 34.5397 1135.05 36.77C1134.34 31.97 1132.12 15.82 1139.71 12.03L1139.63 12.02ZM1126.86 31.52C1127.67 30.56 1128.72 29.8434 1129.92 29.45C1129.98 29.4328 1130.03 29.3995 1130.07 29.3537C1130.12 29.3078 1130.14 29.2512 1130.16 29.19C1130.17 29.1284 1130.16 29.0653 1130.14 29.0073C1130.11 28.9493 1130.08 28.8984 1130.03 28.86C1129.04 28.118 1127.87 27.6458 1126.64 27.4898C1125.42 27.3338 1124.17 27.4993 1123.03 27.97C1123.84 25.47 1126.69 24.97 1126.82 24.91C1126.88 24.9018 1126.94 24.8745 1126.99 24.8317C1127.04 24.7889 1127.07 24.7325 1127.09 24.67C1127.1 24.6071 1127.1 24.5415 1127.08 24.4799C1127.06 24.4183 1127.02 24.3631 1126.98 24.32C1125.12 22.76 1120.69 23.97 1118.98 24.52C1119.81 22.665 1121.33 21.1989 1123.21 20.42C1123.26 20.4007 1123.31 20.3664 1123.35 20.3206C1123.39 20.2747 1123.42 20.2192 1123.43 20.16C1123.44 20.1017 1123.43 20.0418 1123.41 19.9858C1123.39 19.9298 1123.36 19.8797 1123.32 19.84C1121.04 17.89 1116.08 18.72 1113.98 19.19C1115.27 17.5025 1116.97 16.1708 1118.92 15.32C1118.97 15.2998 1119.02 15.2652 1119.06 15.2195C1119.1 15.1739 1119.13 15.1189 1119.14 15.06C1119.15 15.0017 1119.15 14.9412 1119.13 14.8848C1119.11 14.8285 1119.07 14.7784 1119.03 14.74C1116.32 12.46 1109.53 13.07 1107.03 13.38C1110.81 9.71997 1117.03 9.73999 1117.09 9.73999C1128.01 10.58 1133.18 31.33 1134.36 36.86C1132.34 34.501 1129.78 32.6711 1126.9 31.53L1126.86 31.52ZM1126.71 40.77C1126.44 39.7876 1126.44 38.7524 1126.71 37.77C1126.73 37.7106 1126.73 37.6472 1126.71 37.587C1126.69 37.5268 1126.66 37.4724 1126.62 37.43C1126.57 37.3862 1126.52 37.3555 1126.46 37.3413C1126.4 37.3272 1126.34 37.3302 1126.28 37.35C1125.31 37.6954 1124.44 38.2843 1123.77 39.0602C1123.09 39.836 1122.63 40.7726 1122.42 41.78C1122.05 41.1973 1121.82 40.5336 1121.77 39.8456C1121.71 39.1577 1121.82 38.466 1122.09 37.83C1122.12 37.778 1122.14 37.7172 1122.14 37.655C1122.14 37.5928 1122.12 37.532 1122.09 37.48C1122.04 37.4319 1121.99 37.3969 1121.93 37.3792C1121.86 37.3615 1121.8 37.3618 1121.74 37.38C1119.8 37.95 1118.6 41.5 1118.17 43.03C1117.3 41.612 1116.99 39.9219 1117.31 38.29C1117.32 38.2325 1117.32 38.1729 1117.3 38.1168C1117.28 38.0607 1117.25 38.0102 1117.21 37.97C1117.17 37.926 1117.11 37.895 1117.05 37.8808C1116.99 37.8666 1116.93 37.8698 1116.88 37.89C1114.5 38.58 1112.81 42.29 1112.13 44.06C1111.58 42.4188 1111.44 40.668 1111.72 38.96C1111.73 38.902 1111.73 38.8406 1111.72 38.7824C1111.7 38.7242 1111.67 38.6715 1111.63 38.63C1111.58 38.588 1111.53 38.5584 1111.47 38.5443C1111.41 38.5302 1111.35 38.5322 1111.3 38.55C1108.49 39.39 1105.83 44.25 1104.82 46.28C1104.09 41.99 1106.91 37.73 1106.93 37.7C1108.63 35.5 1111.36 34.51 1114.48 34.24C1121.53 33.64 1130.48 36.76 1133.79 38.01C1131.24 38.3515 1128.81 39.2979 1126.71 40.77ZM1132.51 38.92L1132.34 39.08H1132.04L1132.51 38.92ZM1128.88 42.92C1128.84 42.5357 1128.89 42.1488 1129 41.7813C1129.12 41.4138 1129.31 41.073 1129.56 40.7785C1129.81 40.484 1130.11 40.2416 1130.45 40.0651C1130.8 39.8886 1131.17 39.7815 1131.56 39.75H1131.86V39.8C1131.86 39.85 1131.81 39.91 1131.78 39.96C1131.71 40.0962 1131.65 40.2365 1131.6 40.38L1131.54 40.59C1131.5 40.7309 1131.47 40.8746 1131.45 41.02V41.21C1131.43 41.4262 1131.43 41.6438 1131.45 41.86C1131.46 42.0421 1131.49 42.2227 1131.54 42.4C1131.54 42.46 1131.54 42.52 1131.59 42.58L1131.71 42.92L1131.8 43.11C1131.84 43.2098 1131.9 43.3067 1131.96 43.4L1132.08 43.59C1132.13 43.6775 1132.2 43.761 1132.27 43.84L1132.42 44.01C1132.49 44.0916 1132.57 44.1684 1132.65 44.24L1132.82 44.38C1132.9 44.4522 1132.99 44.519 1133.09 44.58L1133.26 44.69C1133.4 44.7719 1133.55 44.8421 1133.71 44.9C1133.24 45.2925 1132.67 45.5303 1132.07 45.58C1131.67 45.6169 1131.28 45.5748 1130.9 45.4561C1130.53 45.3375 1130.18 45.1446 1129.88 44.8891C1129.58 44.6336 1129.34 44.3205 1129.16 43.9685C1128.99 43.6165 1128.88 43.2328 1128.86 42.84L1128.88 42.92ZM1158.03 87.21C1158.28 87.8583 1158.38 88.5571 1158.32 89.2512C1158.26 89.9453 1158.04 90.6159 1157.68 91.21C1156.37 93.49 1152.41 96.42 1141.01 97.4C1127.01 98.59 1123.18 95.11 1122.13 92.92C1121.77 92.2377 1121.61 91.4738 1121.65 90.7073C1121.7 89.9408 1121.94 89.1995 1122.37 88.56C1122.95 87.8919 1123.44 87.1404 1123.81 86.33C1124.81 84.33 1125.86 82.27 1132.62 80.16C1132.49 80.67 1132.35 81.16 1132.21 81.7C1132.04 82.3014 1132.06 82.9379 1132.25 83.5313C1132.44 84.1247 1132.8 84.649 1133.29 85.04C1134.29 85.8369 1135.43 86.429 1136.66 86.7824C1137.89 87.1359 1139.18 87.2438 1140.45 87.1C1141.22 87.0338 1141.99 86.8727 1142.73 86.62C1143.86 86.2635 1144.87 85.5883 1145.62 84.6749C1146.38 83.7616 1146.86 82.6489 1147.01 81.47V81.4C1147.01 81.19 1146.92 80.15 1146.76 78.54C1149.19 78.9352 1151.5 79.9261 1153.46 81.4246C1155.42 82.923 1156.98 84.8828 1158.01 87.13L1158.03 87.21ZM1141.17 41.01C1141.2 41.3935 1141.16 41.7797 1141.04 42.1465C1140.92 42.5134 1140.74 42.8538 1140.49 43.1481C1140.24 43.4425 1139.94 43.6852 1139.6 43.8622C1139.25 44.0393 1138.88 44.1473 1138.5 44.18C1138.16 44.2125 1137.82 44.1854 1137.5 44.1C1137.56 44.05 1137.6 43.99 1137.66 43.93L1137.74 43.84C1137.83 43.73 1137.92 43.61 1138 43.49C1138.07 43.38 1138.13 43.26 1138.19 43.15L1138.25 43.02C1138.25 42.93 1138.32 42.84 1138.35 42.74C1138.38 42.64 1138.35 42.64 1138.4 42.59C1138.43 42.4982 1138.45 42.4047 1138.47 42.31V42.16V41.86C1138.47 41.8134 1138.47 41.7666 1138.47 41.72C1138.48 41.5702 1138.48 41.4198 1138.47 41.27C1138.47 41.12 1138.47 40.98 1138.4 40.83C1138.33 40.68 1138.4 40.74 1138.4 40.69C1138.4 40.64 1138.35 40.5 1138.32 40.41L1138.26 40.25C1138.22 40.1649 1138.19 40.0814 1138.15 40C1138.12 39.948 1138.1 39.8978 1138.07 39.85C1138.07 39.77 1137.98 39.69 1137.93 39.61L1137.84 39.48C1137.78 39.3867 1137.7 39.2996 1137.63 39.22L1137.57 39.14C1137.47 39.0383 1137.37 38.9415 1137.27 38.85L1137.15 38.76L1136.98 38.62C1137.27 38.4895 1137.59 38.4084 1137.92 38.38C1138.68 38.2952 1139.45 38.5153 1140.05 38.9925C1140.66 39.4697 1141.05 40.1657 1141.15 40.93L1141.17 41.01ZM1159.71 29.01C1159.65 29.0154 1159.59 29.0357 1159.54 29.0689C1159.49 29.1021 1159.45 29.1472 1159.43 29.2C1159.4 29.252 1159.38 29.3105 1159.38 29.37C1159.38 29.4295 1159.4 29.488 1159.43 29.54C1160.43 31.2075 1161 33.0975 1161.09 35.04C1159.72 33.54 1156.46 30.34 1153.72 30.58C1153.66 30.5841 1153.6 30.604 1153.56 30.6375C1153.51 30.671 1153.47 30.7168 1153.45 30.77C1153.42 30.822 1153.4 30.8805 1153.4 30.94C1153.4 30.9995 1153.42 31.058 1153.45 31.11C1154.43 32.6905 1154.78 34.5805 1154.45 36.41C1153.45 35.05 1150.73 31.82 1148.5 32.02C1148.43 32.0229 1148.37 32.0454 1148.32 32.0847C1148.27 32.1241 1148.23 32.1782 1148.21 32.24C1148.18 32.2994 1148.18 32.365 1148.19 32.4277C1148.21 32.4904 1148.24 32.5472 1148.29 32.59C1148.83 33.1446 1149.23 33.8245 1149.44 34.5695C1149.66 35.3144 1149.69 36.1012 1149.53 36.86C1148.91 35.9115 1148.05 35.1378 1147.05 34.6127C1146.04 34.0875 1144.92 33.8284 1143.79 33.86C1143.72 33.864 1143.66 33.8846 1143.61 33.9197C1143.56 33.9549 1143.51 34.0032 1143.49 34.06C1143.46 34.1173 1143.45 34.1803 1143.46 34.242C1143.47 34.3037 1143.5 34.3619 1143.54 34.41C1144.22 35.3319 1144.64 36.4258 1144.74 37.57C1142.87 37.1058 1140.95 36.9571 1139.04 37.13C1138.11 37.2154 1137.19 37.3658 1136.29 37.58C1140.29 33.93 1155.14 21.15 1163.78 26.32C1163.83 26.32 1168.52 29.63 1169.45 34.39C1167.71 32.69 1162.94 28.68 1159.71 28.96V29.01Z" fill="#E5E5E5"/>
<path d="M1118.18 49.68C1108.92 44.15 1093.65 57.47 1089.77 61.1C1090.55 58.7979 1091.91 56.733 1093.71 55.1C1093.75 55.0669 1093.78 55.0243 1093.81 54.9756C1093.83 54.9269 1093.84 54.8736 1093.84 54.82C1093.84 54.7684 1093.82 54.7176 1093.8 54.6722C1093.78 54.6268 1093.74 54.5883 1093.7 54.56C1092.84 53.9802 1091.83 53.6607 1090.8 53.64C1091.33 52.9837 1092.01 52.4669 1092.79 52.1342C1093.57 51.8014 1094.41 51.6627 1095.26 51.73C1095.32 51.7392 1095.38 51.7299 1095.44 51.7032C1095.5 51.6765 1095.54 51.6337 1095.58 51.58C1095.61 51.5253 1095.62 51.4632 1095.62 51.4C1095.62 51.3368 1095.61 51.2747 1095.58 51.22C1095.17 50.6016 1094.6 50.1021 1093.94 49.7719C1093.28 49.4418 1092.54 49.2928 1091.8 49.34C1093.11 48.34 1096.08 47.98 1097.28 47.94C1097.34 47.9394 1097.4 47.9201 1097.46 47.8846C1097.51 47.8491 1097.55 47.7988 1097.58 47.74C1097.6 47.6827 1097.61 47.6197 1097.6 47.558C1097.59 47.4963 1097.57 47.4381 1097.53 47.39C1096.37 46.0431 1094.73 45.2061 1092.96 45.06C1094.62 43.06 1099.54 42.46 1099.59 42.45C1099.66 42.4446 1099.72 42.4162 1099.78 42.3692C1099.83 42.3222 1099.86 42.2592 1099.88 42.19C1099.89 42.1513 1099.9 42.1097 1099.9 42.0676C1099.9 42.0255 1099.89 41.9837 1099.88 41.9447C1099.86 41.9057 1099.84 41.8702 1099.81 41.8402C1099.78 41.8102 1099.75 41.7864 1099.71 41.77C1098.15 40.7761 1096.38 40.1567 1094.54 39.96C1096.54 37.48 1102.9 35.96 1102.97 35.96C1103.03 35.9441 1103.1 35.9078 1103.14 35.8559C1103.19 35.804 1103.22 35.7391 1103.23 35.67C1103.23 35.6018 1103.22 35.5328 1103.19 35.4721C1103.16 35.4114 1103.11 35.3619 1103.05 35.33C1098.79 33.11 1093.59 35.27 1093.35 35.33C1087.35 38.33 1087.08 48.28 1087.71 55.17C1085.35 46.8 1080.22 33.69 1071.15 33C1070.85 33 1063.78 33 1059.9 37.57C1059.86 37.6256 1059.84 37.692 1059.84 37.76C1059.84 37.828 1059.86 37.8944 1059.9 37.95C1059.93 38.0098 1059.98 38.0578 1060.05 38.0881C1060.11 38.1184 1060.18 38.1295 1060.25 38.12C1060.34 38.12 1068.79 36.75 1072.25 38.85C1070.14 39.9444 1068.32 41.5329 1066.96 43.48C1066.92 43.5387 1066.89 43.6085 1066.89 43.68C1066.89 43.7515 1066.92 43.8213 1066.96 43.88C1067 43.9372 1067.05 43.9804 1067.12 44.0037C1067.19 44.027 1067.26 44.0292 1067.33 44.01C1067.4 44.01 1073.67 42.26 1076.55 43.96C1075.53 44.4515 1074.63 45.1409 1073.88 45.9875C1073.14 46.8342 1072.57 47.821 1072.22 48.89C1072.2 48.9508 1072.19 49.0162 1072.21 49.0784C1072.23 49.1406 1072.26 49.1967 1072.31 49.24C1072.35 49.2851 1072.41 49.3158 1072.47 49.3283C1072.53 49.3408 1072.6 49.3344 1072.66 49.31C1074.15 48.76 1078.03 47.67 1080.03 48.41C1079.11 48.6779 1078.28 49.192 1077.63 49.8968C1076.98 50.6017 1076.53 51.4706 1076.34 52.41C1076.33 52.4726 1076.33 52.5366 1076.36 52.5949C1076.38 52.6532 1076.42 52.7035 1076.48 52.74C1076.53 52.7716 1076.59 52.7882 1076.66 52.7882C1076.72 52.7882 1076.78 52.7716 1076.84 52.74C1077.83 52.2307 1078.93 51.9801 1080.04 52.0116C1081.15 52.0431 1082.24 52.3556 1083.2 52.92C1081.95 53.4256 1080.88 54.2927 1080.13 55.41C1080.1 55.4562 1080.09 55.5077 1080.09 55.56C1080.09 55.6123 1080.1 55.6638 1080.13 55.71C1080.15 55.7593 1080.17 55.8038 1080.21 55.8401C1080.25 55.8765 1080.3 55.9038 1080.35 55.92C1083.29 56.9759 1085.91 58.7781 1087.95 61.15C1083.01 59.24 1066.25 53.49 1060.37 61.15C1060.23 61.36 1056.92 66.35 1058.37 71.24C1058.39 71.3056 1058.43 71.3636 1058.48 71.4064C1058.53 71.4493 1058.6 71.4749 1058.67 71.48H1058.72C1058.78 71.4736 1058.83 71.4518 1058.88 71.4168C1058.93 71.3817 1058.97 71.3346 1059 71.28C1059 71.21 1061.92 64.77 1064.94 63.28C1064.76 65.2525 1065.04 67.2396 1065.78 69.08C1065.8 69.1458 1065.84 69.2025 1065.9 69.242C1065.96 69.2816 1066.03 69.3019 1066.1 69.3C1066.17 69.2989 1066.24 69.2751 1066.3 69.232C1066.35 69.1889 1066.4 69.1287 1066.42 69.06C1066.42 69.01 1068.07 63.93 1070.53 62.62C1070.42 63.5555 1070.49 64.5034 1070.75 65.4094C1071.01 66.3155 1071.44 67.1618 1072.03 67.9C1072.07 67.949 1072.12 67.9855 1072.18 68.005C1072.24 68.0245 1072.31 68.0262 1072.37 68.01C1072.43 67.9975 1072.48 67.9671 1072.53 67.9226C1072.57 67.8782 1072.6 67.8216 1072.62 67.76C1072.91 66.5 1073.88 63.4 1075.25 62.26C1075.04 63.0276 1075.04 63.837 1075.24 64.605C1075.45 65.373 1075.86 66.0719 1076.43 66.63C1076.47 66.672 1076.53 66.7006 1076.59 66.713C1076.65 66.7253 1076.72 66.7208 1076.78 66.7C1076.84 66.6765 1076.89 66.637 1076.93 66.5858C1076.97 66.5347 1076.99 66.4739 1077 66.41C1077.1 65.5062 1077.43 64.6416 1077.94 63.8907C1078.45 63.1399 1079.14 62.5253 1079.95 62.1C1079.75 63.192 1079.87 64.3184 1080.31 65.34C1080.33 65.388 1080.36 65.4303 1080.4 65.4634C1080.44 65.4965 1080.49 65.5194 1080.54 65.53C1080.59 65.5411 1080.64 65.5406 1080.69 65.5285C1080.74 65.5164 1080.79 65.4929 1080.83 65.46C1081.62 64.8403 1082.48 64.3197 1083.4 63.91C1083 64.2794 1082.69 64.7354 1082.49 65.2432C1082.29 65.7509 1082.21 66.2971 1082.26 66.84C1082.34 67.7932 1082.79 68.6752 1083.53 69.2921C1084.26 69.9089 1085.2 70.2103 1086.16 70.13C1086.94 70.0612 1087.68 69.7341 1088.26 69.2C1089.11 71.42 1092.36 82.06 1086.86 103.2C1079.44 105.43 1078.26 107.77 1077.23 109.84C1076.89 110.592 1076.45 111.29 1075.91 111.91C1075.38 112.649 1075.07 113.518 1075.01 114.421C1074.95 115.324 1075.14 116.227 1075.56 117.03C1076.93 119.89 1081.44 123.03 1095.1 121.88C1104.5 121.08 1110.29 118.88 1112.31 115.34C1112.72 114.662 1112.96 113.898 1113.03 113.108C1113.09 112.318 1112.96 111.524 1112.67 110.79C1110.67 106.01 1105.55 102.14 1100.67 101.67C1099.89 93.96 1097.5 75.89 1091.84 68.67C1092.08 68.695 1092.32 68.695 1092.56 68.67C1093.51 68.5861 1094.39 68.1274 1095.01 67.3946C1095.63 66.6617 1095.93 65.7144 1095.85 64.76C1095.78 64.0427 1095.51 63.3607 1095.05 62.8026C1094.6 62.2444 1093.99 61.8358 1093.3 61.63C1095.22 61.4626 1097.16 61.6422 1099.03 62.16C1099.07 62.1821 1099.12 62.1935 1099.17 62.1935C1099.22 62.1935 1099.27 62.1821 1099.32 62.16C1099.36 62.1322 1099.4 62.094 1099.42 62.0487C1099.45 62.0033 1099.46 61.9523 1099.47 61.9C1099.49 60.6563 1099.14 59.4337 1098.47 58.39C1099.48 58.4859 1100.46 58.8332 1101.31 59.4005C1102.16 59.9679 1102.85 60.7375 1103.33 61.64C1103.35 61.6962 1103.4 61.7437 1103.45 61.7773C1103.5 61.8108 1103.56 61.829 1103.63 61.83C1103.69 61.829 1103.75 61.8108 1103.8 61.7773C1103.86 61.7437 1103.9 61.6962 1103.93 61.64C1104.29 60.8305 1104.43 59.9376 1104.32 59.0568C1104.21 58.176 1103.87 57.3406 1103.33 56.64C1105.21 57.19 1107.53 60.04 1108.33 61.24C1108.36 61.2896 1108.41 61.3295 1108.46 61.3557C1108.52 61.382 1108.58 61.3938 1108.64 61.39C1108.7 61.3806 1108.76 61.3528 1108.81 61.3102C1108.86 61.2676 1108.89 61.2119 1108.91 61.15C1109.2 60.1583 1109.3 59.1178 1109.19 58.0882C1109.09 57.0587 1108.78 56.0602 1108.29 55.15C1111.36 55.45 1115.14 60.06 1115.18 60.15C1115.22 60.2045 1115.28 60.2442 1115.35 60.2638C1115.42 60.2835 1115.49 60.2821 1115.56 60.26C1115.63 60.2377 1115.68 60.1931 1115.72 60.1332C1115.76 60.0733 1115.78 60.0017 1115.78 59.93C1115.79 57.7374 1115.27 55.5743 1114.28 53.62C1117.99 53.9 1123.62 59.4 1123.68 59.46C1123.73 59.5085 1123.79 59.5403 1123.86 59.5511C1123.93 59.5618 1123.99 59.551 1124.06 59.52C1124.12 59.4914 1124.17 59.4443 1124.2 59.3852C1124.24 59.3261 1124.25 59.2579 1124.25 59.19C1123.82 53.62 1118.43 49.85 1118.18 49.68ZM1100.29 105.29C1100.16 106.341 1099.72 107.331 1099.05 108.144C1098.37 108.956 1097.47 109.555 1096.46 109.87C1093.62 110.87 1089.61 110.21 1087.71 108.43C1087.32 108.116 1087.03 107.698 1086.87 107.225C1086.72 106.752 1086.7 106.244 1086.82 105.76L1087.06 104.88C1089.52 105.794 1092.14 106.199 1094.76 106.07C1096.8 105.988 1098.73 105.121 1100.15 103.65C1100.24 104.56 1100.28 105.14 1100.29 105.29ZM1100.06 102.69C1096.63 107.3 1088.8 104.79 1087.23 104.22C1087.69 102.52 1088.09 100.887 1088.44 99.32C1090.2 100.411 1092.28 100.896 1094.35 100.7C1096.22 100.501 1098.03 99.8972 1099.65 98.93C1099.82 100.39 1099.96 101.67 1100.06 102.69ZM1099.56 98.2C1093.56 101.8 1089.44 99.2 1088.56 98.61C1088.9 97.04 1089.18 95.54 1089.43 94.11C1091.04 94.6306 1092.74 94.831 1094.43 94.7C1095.97 94.5775 1097.47 94.1166 1098.82 93.35C1099.15 95.08 1099.37 96.77 1099.56 98.2ZM1089.56 93.43C1089.81 91.93 1090.01 90.49 1090.16 89.14C1091.48 89.624 1092.89 89.8117 1094.3 89.69C1095.61 89.5788 1096.88 89.1866 1098.03 88.54C1098.3 89.93 1098.53 91.3 1098.74 92.63C1097.35 93.3932 1095.82 93.8586 1094.24 93.9963C1092.66 94.1341 1091.08 93.9412 1089.58 93.43H1089.56ZM1090.23 88.43C1090.36 87.15 1090.46 85.93 1090.52 84.78C1091.65 85.1552 1092.84 85.298 1094.03 85.2C1095.12 85.1022 1096.19 84.7605 1097.14 84.2C1097.41 85.39 1097.67 86.6 1097.9 87.79C1096.75 88.4597 1095.47 88.8656 1094.14 88.978C1092.82 89.0904 1091.49 88.9067 1090.25 88.44L1090.23 88.43ZM1090.56 84.07C1090.56 83 1090.62 81.99 1090.61 81.07C1091.35 81.2044 1092.1 81.2414 1092.85 81.18C1094 81.1021 1095.11 80.7 1096.05 80.02C1096.38 81.18 1096.69 82.37 1096.97 83.57C1096 84.1134 1094.93 84.4405 1093.83 84.5286C1092.72 84.6167 1091.61 84.4636 1090.58 84.08L1090.56 84.07ZM1090.61 80.34C1090.61 79.15 1090.53 78.06 1090.44 77.06C1090.97 77.1817 1091.53 77.2188 1092.08 77.17C1093.07 77.0806 1094.02 76.7361 1094.84 76.17C1095.19 77.17 1095.53 78.17 1095.84 79.26C1095.09 79.7956 1094.24 80.1694 1093.35 80.3571C1092.45 80.5449 1091.52 80.5424 1090.63 80.35L1090.61 80.34ZM1090.38 76.34C1090.29 75.5 1090.19 74.73 1090.08 74.03C1090.39 74.0609 1090.71 74.0609 1091.03 74.03C1091.95 73.9656 1092.83 73.6162 1093.55 73.03C1093.92 73.82 1094.26 74.66 1094.6 75.53C1094.01 75.9788 1093.32 76.2861 1092.59 76.4283C1091.86 76.5704 1091.11 76.5436 1090.4 76.35L1090.38 76.34ZM1089.97 73.34C1089.82 72.54 1089.67 71.85 1089.52 71.26C1089.72 71.28 1089.93 71.28 1090.14 71.26C1090.89 71.2083 1091.6 70.885 1092.14 70.35C1092.55 70.9946 1092.93 71.6624 1093.28 72.35C1092.84 72.7508 1092.31 73.0486 1091.74 73.2216C1091.18 73.3946 1090.57 73.4384 1089.99 73.35L1089.97 73.34ZM1089.32 70.54C1089.13 69.88 1088.96 69.39 1088.83 69.05H1089.26C1089.79 69.0013 1090.3 68.8338 1090.76 68.56C1091.11 68.9435 1091.45 69.3475 1091.76 69.77C1091.46 70.102 1091.08 70.3491 1090.65 70.4861C1090.23 70.6231 1089.77 70.6451 1089.34 70.55L1089.32 70.54ZM1090.63 67.85C1090.3 68.075 1089.93 68.2324 1089.54 68.3131C1089.15 68.3938 1088.75 68.3961 1088.36 68.32C1087.74 68.1929 1087.18 67.8691 1086.76 67.397C1086.34 66.9248 1086.08 66.3295 1086.03 65.7C1085.99 65.3221 1086.03 64.9412 1086.15 64.5791C1086.26 64.217 1086.44 63.8809 1086.69 63.59C1086.93 63.287 1087.23 63.0367 1087.58 62.8545C1087.92 62.6723 1088.3 62.5619 1088.69 62.53H1089.12C1089.49 62.5487 1089.85 62.6404 1090.19 62.8C1090.65 63.0188 1091.05 63.3556 1091.34 63.7768C1091.64 64.198 1091.81 64.6887 1091.86 65.2C1091.91 65.7107 1091.82 66.2257 1091.61 66.6929C1091.4 67.1601 1091.06 67.5627 1090.65 67.86L1090.63 67.85ZM1093.63 36.02C1094.91 35.523 1096.26 35.2099 1097.63 35.09C1099.06 34.9411 1100.51 35.1084 1101.87 35.58C1099.78 36.16 1094.87 37.74 1093.63 40.16C1093.59 40.211 1093.58 40.2699 1093.58 40.33C1093.58 40.3901 1093.59 40.4491 1093.63 40.5C1093.66 40.5503 1093.7 40.5909 1093.76 40.6174C1093.81 40.6439 1093.87 40.6552 1093.93 40.65C1095.53 40.6882 1097.09 41.1174 1098.49 41.9C1096.71 42.23 1093.06 43.13 1092 45.19C1091.97 45.2402 1091.95 45.2971 1091.95 45.355C1091.95 45.4129 1091.97 45.4698 1092 45.52C1092.03 45.5714 1092.07 45.6134 1092.12 45.6416C1092.18 45.6698 1092.24 45.6831 1092.3 45.68C1093.84 45.6871 1095.32 46.2561 1096.47 47.28C1094.95 47.41 1091.52 47.9 1090.64 49.57C1090.6 49.624 1090.59 49.6864 1090.59 49.75C1090.59 49.8136 1090.6 49.876 1090.64 49.93C1090.67 49.9847 1090.72 50.0268 1090.79 50.0501C1090.85 50.0735 1090.91 50.0769 1090.98 50.06C1091.6 49.9346 1092.25 49.96 1092.86 50.1339C1093.47 50.3078 1094.03 50.6253 1094.5 51.06C1093.53 51.077 1092.59 51.3417 1091.76 51.8286C1090.93 52.3156 1090.24 53.0083 1089.76 53.84C1089.72 53.8929 1089.71 53.9533 1089.71 54.015C1089.71 54.0766 1089.72 54.1371 1089.76 54.19C1089.79 54.2419 1089.84 54.2834 1089.9 54.3098C1089.95 54.3363 1090.01 54.3467 1090.08 54.34C1091.02 54.2747 1091.97 54.461 1092.82 54.88C1091.12 56.5227 1089.83 58.5397 1089.05 60.77C1088.34 55.97 1086.12 39.82 1093.71 36.03L1093.63 36.02ZM1080.86 55.52C1081.67 54.56 1082.72 53.8434 1083.92 53.45C1083.98 53.4328 1084.03 53.3995 1084.07 53.3537C1084.12 53.3078 1084.14 53.2512 1084.16 53.19C1084.17 53.1284 1084.16 53.0653 1084.14 53.0073C1084.11 52.9493 1084.08 52.8984 1084.03 52.86C1083.04 52.118 1081.87 51.6458 1080.64 51.4898C1079.42 51.3338 1078.17 51.4993 1077.03 51.97C1077.84 49.47 1080.69 48.97 1080.82 48.91C1080.88 48.9018 1080.94 48.8745 1080.99 48.8317C1081.04 48.7889 1081.07 48.7325 1081.09 48.67C1081.1 48.6071 1081.1 48.5415 1081.08 48.4799C1081.06 48.4183 1081.02 48.3631 1080.98 48.32C1079.12 46.76 1074.69 47.97 1072.98 48.52C1073.81 46.665 1075.33 45.1989 1077.21 44.42C1077.26 44.4007 1077.31 44.3664 1077.35 44.3206C1077.39 44.2747 1077.42 44.2192 1077.43 44.16C1077.44 44.1017 1077.43 44.0418 1077.41 43.9858C1077.39 43.9298 1077.36 43.8797 1077.32 43.84C1075.04 41.89 1070.08 42.72 1067.98 43.19C1069.27 41.5025 1070.97 40.1708 1072.92 39.32C1072.97 39.2998 1073.02 39.2652 1073.06 39.2195C1073.1 39.1739 1073.13 39.1189 1073.14 39.06C1073.15 39.0017 1073.15 38.9412 1073.13 38.8848C1073.11 38.8285 1073.07 38.7784 1073.03 38.74C1070.32 36.46 1063.53 37.07 1061.03 37.38C1064.81 33.72 1071.03 33.74 1071.09 33.74C1082.01 34.58 1087.18 55.33 1088.36 60.86C1086.34 58.501 1083.78 56.6711 1080.9 55.53L1080.86 55.52ZM1080.71 64.77C1080.44 63.7876 1080.44 62.7524 1080.71 61.77C1080.73 61.7106 1080.73 61.6472 1080.71 61.587C1080.69 61.5268 1080.66 61.4724 1080.62 61.43C1080.57 61.3862 1080.52 61.3555 1080.46 61.3413C1080.4 61.3272 1080.34 61.3302 1080.28 61.35C1079.31 61.6954 1078.44 62.2843 1077.77 63.0602C1077.09 63.836 1076.63 64.7726 1076.42 65.78C1076.05 65.1973 1075.82 64.5336 1075.77 63.8456C1075.71 63.1577 1075.82 62.466 1076.09 61.83C1076.12 61.778 1076.14 61.7172 1076.14 61.655C1076.14 61.5928 1076.12 61.532 1076.09 61.48C1076.04 61.4319 1075.99 61.3969 1075.93 61.3792C1075.86 61.3615 1075.8 61.3618 1075.74 61.38C1073.8 61.95 1072.6 65.5 1072.17 67.03C1071.3 65.612 1070.99 63.9219 1071.31 62.29C1071.32 62.2325 1071.32 62.1729 1071.3 62.1168C1071.28 62.0607 1071.25 62.0102 1071.21 61.97C1071.17 61.926 1071.11 61.895 1071.05 61.8808C1070.99 61.8666 1070.93 61.8698 1070.88 61.89C1068.5 62.58 1066.81 66.29 1066.13 68.06C1065.58 66.4188 1065.44 64.668 1065.72 62.96C1065.73 62.902 1065.73 62.8406 1065.72 62.7824C1065.7 62.7242 1065.67 62.6715 1065.63 62.63C1065.58 62.588 1065.53 62.5584 1065.47 62.5443C1065.41 62.5302 1065.35 62.5322 1065.3 62.55C1062.49 63.39 1059.83 68.25 1058.82 70.28C1058.09 65.99 1060.91 61.73 1060.93 61.7C1062.63 59.5 1065.36 58.51 1068.48 58.24C1075.53 57.64 1084.48 60.76 1087.79 62.01C1085.24 62.3515 1082.81 63.2979 1080.71 64.77ZM1086.51 62.92L1086.34 63.08H1086.04L1086.51 62.92ZM1082.88 66.92C1082.84 66.5357 1082.89 66.1488 1083 65.7813C1083.12 65.4138 1083.31 65.073 1083.56 64.7785C1083.81 64.484 1084.11 64.2416 1084.45 64.0651C1084.8 63.8886 1085.17 63.7815 1085.56 63.75H1085.86V63.8C1085.86 63.85 1085.81 63.91 1085.78 63.96C1085.71 64.0962 1085.65 64.2365 1085.6 64.38L1085.54 64.59C1085.5 64.7309 1085.47 64.8746 1085.45 65.02V65.21C1085.43 65.4262 1085.43 65.6438 1085.45 65.86C1085.46 66.0421 1085.49 66.2227 1085.54 66.4C1085.54 66.46 1085.54 66.52 1085.59 66.58L1085.71 66.92L1085.8 67.11C1085.84 67.2098 1085.9 67.3067 1085.96 67.4L1086.08 67.59C1086.13 67.6775 1086.2 67.761 1086.27 67.84L1086.42 68.01C1086.49 68.0916 1086.57 68.1684 1086.65 68.24L1086.82 68.38C1086.9 68.4522 1086.99 68.519 1087.09 68.58L1087.26 68.69C1087.4 68.7719 1087.55 68.8421 1087.71 68.9C1087.24 69.2925 1086.67 69.5303 1086.07 69.58C1085.67 69.6169 1085.28 69.5748 1084.9 69.4561C1084.53 69.3375 1084.18 69.1446 1083.88 68.8891C1083.58 68.6336 1083.34 68.3205 1083.16 67.9685C1082.99 67.6165 1082.88 67.2328 1082.86 66.84L1082.88 66.92ZM1112.03 111.21C1112.28 111.858 1112.38 112.557 1112.32 113.251C1112.26 113.945 1112.04 114.616 1111.68 115.21C1110.37 117.49 1106.41 120.42 1095.01 121.4C1081.01 122.59 1077.18 119.11 1076.13 116.92C1075.77 116.238 1075.61 115.474 1075.65 114.707C1075.7 113.941 1075.94 113.2 1076.37 112.56C1076.95 111.892 1077.44 111.14 1077.81 110.33C1078.81 108.33 1079.86 106.27 1086.62 104.16C1086.49 104.67 1086.35 105.16 1086.21 105.7C1086.04 106.301 1086.06 106.938 1086.25 107.531C1086.44 108.125 1086.8 108.649 1087.29 109.04C1088.29 109.837 1089.43 110.429 1090.66 110.782C1091.89 111.136 1093.18 111.244 1094.45 111.1C1095.22 111.034 1095.99 110.873 1096.73 110.62C1097.86 110.264 1098.87 109.588 1099.62 108.675C1100.38 107.762 1100.86 106.649 1101.01 105.47V105.4C1101.01 105.19 1100.92 104.15 1100.76 102.54C1103.19 102.935 1105.5 103.926 1107.46 105.425C1109.42 106.923 1110.98 108.883 1112.01 111.13L1112.03 111.21ZM1095.17 65.01C1095.2 65.3935 1095.16 65.7797 1095.04 66.1465C1094.92 66.5134 1094.74 66.8538 1094.49 67.1481C1094.24 67.4425 1093.94 67.6852 1093.6 67.8622C1093.25 68.0393 1092.88 68.1473 1092.5 68.18C1092.16 68.2125 1091.82 68.1854 1091.5 68.1C1091.56 68.05 1091.6 67.99 1091.66 67.93L1091.74 67.84C1091.83 67.73 1091.92 67.61 1092 67.49C1092.07 67.38 1092.13 67.26 1092.19 67.15L1092.25 67.02C1092.25 66.93 1092.32 66.84 1092.35 66.74C1092.38 66.64 1092.35 66.64 1092.4 66.59C1092.43 66.4982 1092.45 66.4047 1092.47 66.31V66.16V65.86C1092.47 65.8134 1092.47 65.7666 1092.47 65.72C1092.48 65.5702 1092.48 65.4198 1092.47 65.27C1092.47 65.12 1092.47 64.98 1092.4 64.83C1092.33 64.68 1092.4 64.74 1092.4 64.69C1092.4 64.64 1092.35 64.5 1092.32 64.41L1092.26 64.25C1092.22 64.1649 1092.19 64.0814 1092.15 64C1092.12 63.948 1092.1 63.8978 1092.07 63.85C1092.07 63.77 1091.98 63.69 1091.93 63.61L1091.84 63.48C1091.78 63.3867 1091.7 63.2996 1091.63 63.22L1091.57 63.14C1091.47 63.0383 1091.37 62.9415 1091.27 62.85L1091.15 62.76L1090.98 62.62C1091.27 62.4895 1091.59 62.4084 1091.92 62.38C1092.68 62.2952 1093.45 62.5153 1094.05 62.9925C1094.66 63.4697 1095.05 64.1657 1095.15 64.93L1095.17 65.01ZM1113.71 53.01C1113.65 53.0154 1113.59 53.0357 1113.54 53.0689C1113.49 53.1021 1113.45 53.1472 1113.43 53.2C1113.4 53.252 1113.38 53.3105 1113.38 53.37C1113.38 53.4295 1113.4 53.488 1113.43 53.54C1114.43 55.2075 1115 57.0975 1115.09 59.04C1113.72 57.54 1110.46 54.34 1107.72 54.58C1107.66 54.5841 1107.6 54.604 1107.56 54.6375C1107.51 54.671 1107.47 54.7168 1107.45 54.77C1107.42 54.822 1107.4 54.8805 1107.4 54.94C1107.4 54.9995 1107.42 55.058 1107.45 55.11C1108.43 56.6905 1108.78 58.5805 1108.45 60.41C1107.45 59.05 1104.73 55.82 1102.5 56.02C1102.43 56.0229 1102.37 56.0454 1102.32 56.0847C1102.27 56.1241 1102.23 56.1782 1102.21 56.24C1102.18 56.2994 1102.18 56.365 1102.19 56.4277C1102.21 56.4904 1102.24 56.5472 1102.29 56.59C1102.83 57.1446 1103.23 57.8245 1103.44 58.5695C1103.66 59.3144 1103.69 60.1012 1103.53 60.86C1102.91 59.9115 1102.05 59.1378 1101.05 58.6127C1100.04 58.0875 1098.92 57.8284 1097.79 57.86C1097.72 57.864 1097.66 57.8846 1097.61 57.9197C1097.56 57.9549 1097.51 58.0032 1097.49 58.06C1097.46 58.1173 1097.45 58.1803 1097.46 58.242C1097.47 58.3037 1097.5 58.3619 1097.54 58.41C1098.22 59.3319 1098.64 60.4258 1098.74 61.57C1096.87 61.1058 1094.95 60.9571 1093.04 61.13C1092.11 61.2154 1091.19 61.3658 1090.29 61.58C1094.29 57.93 1109.14 45.15 1117.78 50.32C1117.83 50.32 1122.52 53.63 1123.45 58.39C1121.71 56.69 1116.94 52.68 1113.71 52.96V53.01Z" fill="#E5E5E5"/>
<path d="M306.071 125.464V116.632H308.759L311.207 123.352C312.551 123.832 314.231 124.072 316.247 124.072C318.423 124.072 320.295 123.688 321.863 122.92C323.463 122.152 324.263 121.016 324.263 119.512C324.263 119.16 324.215 118.824 324.119 118.504C324.055 118.184 323.927 117.88 323.735 117.592C323.543 117.304 323.351 117.048 323.159 116.824C322.967 116.568 322.679 116.312 322.295 116.056C321.911 115.768 321.575 115.544 321.287 115.384C320.999 115.192 320.567 114.952 319.991 114.664C319.447 114.376 318.471 113.896 317.063 113.224L315.335 112.408C312.167 110.872 309.895 109.272 308.519 107.608C307.143 105.912 306.455 103.832 306.455 101.368C306.455 98.744 307.543 96.648 309.719 95.08C311.895 93.48 314.711 92.68 318.167 92.68C322.039 92.68 325.527 93.176 328.631 94.168V103H325.943L323.591 96.568C322.279 96.28 321.015 96.136 319.799 96.136C317.911 96.136 316.295 96.472 314.951 97.144C313.607 97.784 312.935 98.728 312.935 99.976C312.935 101.096 313.463 102.04 314.519 102.808C315.607 103.544 317.527 104.52 320.279 105.736L321.239 106.168C324.503 107.64 326.903 109.272 328.439 111.064C329.975 112.856 330.743 115.032 330.743 117.592C330.743 119.992 330.135 121.96 328.919 123.496C327.735 125 326.167 126.088 324.215 126.76C322.263 127.4 320.039 127.72 317.543 127.72C313.575 127.72 309.751 126.968 306.071 125.464ZM333.073 105.544V103H344.545V119.56C344.545 121.192 344.737 122.328 345.121 122.968C345.537 123.576 346.353 123.88 347.569 123.88C348.497 123.88 349.457 123.64 350.449 123.16C351.441 122.68 352.241 122.04 352.849 121.24V106.504L349.729 105.544V103H360.289V123.4H364.033V125.464C363.329 125.944 362.753 126.296 362.305 126.52C361.889 126.712 361.409 126.904 360.865 127.096C360.353 127.32 359.809 127.48 359.233 127.576C358.689 127.672 358.177 127.72 357.697 127.72C355.393 127.72 353.777 126.68 352.849 124.6C350.577 126.68 347.793 127.72 344.497 127.72C339.601 127.72 337.153 125.208 337.153 120.184V106.504L333.073 105.544ZM363.792 92.968V90.424L371.472 88.6H375.264V104.728C377.248 103.096 379.552 102.28 382.176 102.28C385.152 102.28 387.552 103.272 389.376 105.256C391.232 107.208 392.16 110.152 392.16 114.088C392.16 117 391.408 119.512 389.904 121.624C388.432 123.736 386.592 125.288 384.384 126.28C382.208 127.24 379.856 127.72 377.328 127.72C373.68 127.72 370.528 126.904 367.872 125.272V92.968H363.792ZM375.264 124.456C375.648 124.52 376.192 124.552 376.896 124.552C379.072 124.552 380.88 123.672 382.32 121.912C383.792 120.152 384.528 117.608 384.528 114.28C384.528 109 382.912 106.36 379.68 106.36C378.432 106.36 376.96 106.84 375.264 107.8V124.456ZM395.875 126.616V119.752H398.563L400.291 124.504C401.443 124.568 402.355 124.6 403.027 124.6C406.771 124.6 408.643 123.784 408.643 122.152C408.643 121.48 408.307 120.904 407.635 120.424C406.963 119.912 406.323 119.512 405.715 119.224C405.107 118.936 403.955 118.424 402.259 117.688C400.051 116.728 398.435 115.64 397.411 114.424C396.419 113.176 395.923 111.576 395.923 109.624C395.923 107.224 396.883 105.4 398.803 104.152C400.755 102.904 403.299 102.28 406.435 102.28C409.283 102.28 411.731 102.584 413.779 103.192V109.72H411.283L409.795 105.496C408.835 105.336 407.875 105.256 406.915 105.256C403.843 105.256 402.307 106.008 402.307 107.512C402.307 107.896 402.451 108.296 402.739 108.712C403.027 109.128 403.539 109.544 404.275 109.96C405.043 110.376 406.243 110.936 407.875 111.64C410.787 112.952 412.755 114.232 413.779 115.48C414.803 116.696 415.315 118.344 415.315 120.424C415.315 122.792 414.339 124.6 412.387 125.848C410.435 127.096 407.843 127.72 404.611 127.72C401.571 127.72 398.659 127.352 395.875 126.616ZM418.601 114.904C418.601 111.192 419.817 108.168 422.249 105.832C424.713 103.464 427.609 102.28 430.937 102.28C433.721 102.28 436.457 102.952 439.145 104.296C439.049 106.952 437.881 108.904 435.641 110.152L431.513 105.4H431.225C429.881 105.784 428.697 106.776 427.673 108.376C426.649 109.944 426.137 112.152 426.137 115C426.105 118.2 426.825 120.6 428.297 122.2C429.673 123.512 431.465 124.168 433.673 124.168C434.601 124.168 435.497 124.088 436.361 123.928C437.257 123.768 438.169 123.544 439.097 123.256L439.673 126.088C437.081 127.176 434.425 127.72 431.705 127.72C428.089 127.72 425.001 126.568 422.441 124.264C419.881 121.96 418.601 118.84 418.601 114.904ZM442.034 127V124.456L446.114 123.496V107.368H442.034V104.824L449.714 103H453.506V105.88C455.906 103.48 458.754 102.28 462.05 102.28C462.242 102.888 462.338 103.56 462.338 104.296C462.338 105.768 462.178 107.144 461.858 108.424L455.81 107.416C455.042 107.768 454.274 108.28 453.506 108.952V123.496L458.546 124.456V127H442.034ZM464.44 127V124.456L468.52 123.496V107.368H464.44V104.824L472.12 103H475.912V123.496L479.992 124.456V127H464.44ZM467.752 95.608C467.752 94.36 468.184 93.32 469.048 92.488C469.912 91.624 470.968 91.192 472.216 91.192C473.496 91.192 474.552 91.624 475.384 92.488C476.248 93.32 476.68 94.36 476.68 95.608C476.68 96.888 476.248 97.96 475.384 98.824C474.552 99.688 473.496 100.12 472.216 100.12C470.968 100.12 469.912 99.688 469.048 98.824C468.184 97.96 467.752 96.888 467.752 95.608ZM479.855 92.968V90.424L487.535 88.6H491.327V104.728C493.311 103.096 495.615 102.28 498.239 102.28C501.215 102.28 503.615 103.272 505.439 105.256C507.295 107.208 508.223 110.152 508.223 114.088C508.223 117 507.471 119.512 505.967 121.624C504.495 123.736 502.655 125.288 500.447 126.28C498.271 127.24 495.919 127.72 493.391 127.72C489.743 127.72 486.591 126.904 483.935 125.272V92.968H479.855ZM491.327 124.456C491.711 124.52 492.255 124.552 492.959 124.552C495.135 124.552 496.943 123.672 498.383 121.912C499.855 120.152 500.591 117.608 500.591 114.28C500.591 109 498.975 106.36 495.743 106.36C494.495 106.36 493.023 106.84 491.327 107.8V124.456ZM511.602 114.712C511.602 110.936 512.658 107.928 514.77 105.688C516.914 103.416 519.81 102.28 523.458 102.28C527.17 102.28 529.97 103.544 531.858 106.072C533.778 108.6 534.738 111.72 534.738 115.432H518.994C519.218 117.8 520.066 119.848 521.538 121.576C523.01 123.272 524.898 124.12 527.202 124.12C528.93 124.12 530.786 123.752 532.77 123.016L533.778 125.752C530.802 127.064 527.89 127.72 525.042 127.72C520.914 127.72 517.634 126.52 515.202 124.12C512.802 121.688 511.602 118.552 511.602 114.712ZM518.994 112.456L527.106 111.928C527.106 111.16 527.058 110.456 526.962 109.816C526.866 109.144 526.594 108.344 526.146 107.416C525.346 106.072 524.402 105.4 523.314 105.4C522.034 105.4 520.978 106.056 520.146 107.368C519.666 108.168 519.346 109.048 519.186 110.008C519.026 110.968 518.962 111.784 518.994 112.456ZM548.206 121.048C548.206 118.264 549.342 116.152 551.614 114.712C553.918 113.24 557.63 112.504 562.75 112.504V111.064C562.75 110.104 562.734 109.416 562.702 109C562.702 108.552 562.638 108.024 562.51 107.416C562.382 106.808 562.19 106.376 561.934 106.12C561.71 105.864 561.358 105.64 560.878 105.448C560.398 105.224 559.806 105.112 559.102 105.112L553.006 110.392C550.83 109.144 549.742 107.208 549.742 104.584L551.182 103.96C551.79 103.704 552.974 103.368 554.734 102.952C556.494 102.504 558.206 102.28 559.87 102.28C566.75 102.28 570.19 105.032 570.19 110.536V123.4H573.934V125.464C573.774 125.624 573.55 125.832 573.262 126.088C572.974 126.344 572.35 126.68 571.39 127.096C570.43 127.512 569.438 127.72 568.414 127.72C565.982 127.72 564.174 126.904 562.99 125.272C560.846 126.904 558.51 127.72 555.982 127.72C553.774 127.72 551.918 127.16 550.414 126.04C548.942 124.92 548.206 123.256 548.206 121.048ZM555.934 120.616C555.934 121.544 556.238 122.28 556.846 122.824C557.486 123.368 558.254 123.64 559.15 123.64C560.59 123.64 561.79 123.112 562.75 122.056V115.48C560.958 115.48 559.374 115.96 557.998 116.92C556.622 117.848 555.934 119.08 555.934 120.616ZM575.674 127V124.456L579.754 123.496V107.368H575.674V104.824L583.354 103H587.146V105.352C589.098 103.304 591.514 102.28 594.394 102.28C595.642 102.28 596.762 102.472 597.754 102.856C598.778 103.208 599.626 103.72 600.298 104.392C601.002 105.064 601.546 105.864 601.93 106.792C602.314 107.72 602.506 108.728 602.506 109.816V123.496L606.586 124.456V127H591.994V124.456L595.114 123.496V111.16C595.114 110.168 595.05 109.368 594.922 108.76C594.826 108.152 594.65 107.688 594.394 107.368C594.138 107.016 593.786 106.792 593.338 106.696C592.922 106.568 592.394 106.504 591.754 106.504C590.538 106.504 589.002 107.208 587.146 108.616V123.496L590.266 124.456V127H575.674ZM608.586 115.864C608.586 111.544 609.946 108.2 612.666 105.832C615.418 103.464 618.762 102.28 622.698 102.28C623.69 102.28 624.618 102.376 625.482 102.568V92.968H621.402V90.424L629.082 88.6H632.922V123.4H636.666V125.464C636.474 125.624 636.202 125.832 635.85 126.088C635.53 126.344 634.874 126.68 633.882 127.096C632.89 127.512 631.946 127.72 631.05 127.72C629.706 127.72 628.57 127.4 627.642 126.76C626.746 126.12 626.106 125.432 625.722 124.696C623.962 126.712 621.802 127.72 619.242 127.72C616.33 127.72 613.818 126.712 611.706 124.696C609.626 122.648 608.586 119.704 608.586 115.864ZM616.17 115.672C616.17 118.296 616.73 120.28 617.85 121.624C619.002 122.968 620.138 123.64 621.258 123.64C622.858 123.64 624.266 123.048 625.482 121.864V105.736C624.586 105.512 623.802 105.4 623.13 105.4C621.018 105.4 619.322 106.248 618.042 107.944C616.794 109.608 616.17 112.184 616.17 115.672ZM648.4 134.296C648.4 131.736 649.824 129.704 652.672 128.2C651.808 127.592 651.12 126.808 650.608 125.848C650.416 125.464 650.256 125.016 650.128 124.504C650.032 123.992 650.016 123.464 650.08 122.92L655.6 118.168C653.936 117.432 652.64 116.44 651.712 115.192C650.784 113.912 650.32 112.504 650.32 110.968C650.32 108.664 651.408 106.712 653.584 105.112C655.76 103.48 658.512 102.664 661.84 102.664C664.72 102.664 667.216 103.304 669.328 104.584L676.816 101.8C677.2 102.568 677.392 103.416 677.392 104.344C677.392 105.432 677.328 106.248 677.2 106.792H671.92C672.944 108.136 673.456 109.528 673.456 110.968C673.456 113.336 672.4 115.32 670.288 116.92C668.208 118.488 665.392 119.272 661.84 119.272C660.688 119.272 659.84 119.256 659.296 119.224L657.184 122.152C657.568 122.792 658.096 123.192 658.768 123.352C659.44 123.48 660.576 123.544 662.176 123.544H665.68C668.848 123.544 671.28 124.248 672.976 125.656C674.704 127.064 675.568 129.032 675.568 131.56C675.568 134.024 674.368 136.168 671.968 137.992C669.6 139.848 666.272 140.776 661.984 140.776C652.928 140.776 648.4 138.616 648.4 134.296ZM655.696 133.24C655.696 136.184 657.744 137.656 661.84 137.656C664.528 137.656 666.592 137.208 668.032 136.312C669.472 135.416 670.192 134.296 670.192 132.952C670.192 131.928 669.776 131.144 668.944 130.6C668.112 130.088 666.592 129.832 664.384 129.832H656.752C656.048 130.824 655.696 131.96 655.696 133.24ZM661.84 116.2C663.408 116.2 664.576 115.72 665.344 114.76C666.112 113.768 666.496 112.504 666.496 110.968C666.496 109.432 666.112 108.168 665.344 107.176C664.576 106.152 663.408 105.64 661.84 105.64C660.208 105.64 659.04 106.152 658.336 107.176C657.632 108.168 657.28 109.432 657.28 110.968C657.28 112.504 657.632 113.768 658.336 114.76C659.04 115.72 660.208 116.2 661.84 116.2ZM679.039 114.712C679.039 110.936 680.095 107.928 682.207 105.688C684.351 103.416 687.247 102.28 690.895 102.28C694.607 102.28 697.407 103.544 699.295 106.072C701.215 108.6 702.175 111.72 702.175 115.432H686.431C686.655 117.8 687.503 119.848 688.975 121.576C690.447 123.272 692.335 124.12 694.639 124.12C696.367 124.12 698.223 123.752 700.207 123.016L701.215 125.752C698.239 127.064 695.327 127.72 692.479 127.72C688.351 127.72 685.071 126.52 682.639 124.12C680.239 121.688 679.039 118.552 679.039 114.712ZM686.431 112.456L694.543 111.928C694.543 111.16 694.495 110.456 694.399 109.816C694.303 109.144 694.031 108.344 693.583 107.416C692.783 106.072 691.839 105.4 690.751 105.4C689.471 105.4 688.415 106.056 687.583 107.368C687.103 108.168 686.783 109.048 686.623 110.008C686.463 110.968 686.399 111.784 686.431 112.456ZM704.86 106.36V104.44L713.02 98.632H714.796V103.24L720.748 103V106.36H714.796V120.088C714.796 121.656 714.972 122.76 715.324 123.4C715.676 124.04 716.396 124.36 717.484 124.36C718.284 124.36 719.356 124.072 720.7 123.496L721.468 126.184C719.548 127.208 717.516 127.72 715.372 127.72C710.06 127.72 707.404 125.256 707.404 120.328V106.36H704.86ZM734.024 114.712C734.024 110.936 735.08 107.928 737.192 105.688C739.336 103.416 742.232 102.28 745.88 102.28C749.592 102.28 752.392 103.544 754.28 106.072C756.2 108.6 757.16 111.72 757.16 115.432H741.416C741.64 117.8 742.488 119.848 743.96 121.576C745.432 123.272 747.32 124.12 749.624 124.12C751.352 124.12 753.208 123.752 755.192 123.016L756.2 125.752C753.224 127.064 750.312 127.72 747.464 127.72C743.336 127.72 740.056 126.52 737.624 124.12C735.224 121.688 734.024 118.552 734.024 114.712ZM741.416 112.456L749.528 111.928C749.528 111.16 749.48 110.456 749.384 109.816C749.288 109.144 749.016 108.344 748.568 107.416C747.768 106.072 746.824 105.4 745.736 105.4C744.456 105.4 743.4 106.056 742.568 107.368C742.088 108.168 741.768 109.048 741.608 110.008C741.448 110.968 741.384 111.784 741.416 112.456ZM758.135 127V124.456L762.311 123.64L768.695 116.056L762.551 106.36L758.759 105.544V103H773.879V105.544L771.383 106.024L774.503 110.872L778.343 106.312L775.703 105.544V103H786.455V105.544L782.279 106.456L776.231 113.608L782.663 123.736L786.599 124.456V127H771.095V124.456L773.687 124.072L770.423 118.792L766.199 123.784L768.743 124.456V127H758.135ZM787.648 114.904C787.648 111.192 788.864 108.168 791.296 105.832C793.76 103.464 796.656 102.28 799.984 102.28C802.768 102.28 805.504 102.952 808.192 104.296C808.096 106.952 806.928 108.904 804.688 110.152L800.56 105.4H800.272C798.928 105.784 797.744 106.776 796.72 108.376C795.696 109.944 795.184 112.152 795.184 115C795.152 118.2 795.872 120.6 797.344 122.2C798.72 123.512 800.512 124.168 802.72 124.168C803.648 124.168 804.544 124.088 805.408 123.928C806.304 123.768 807.216 123.544 808.144 123.256L808.72 126.088C806.128 127.176 803.472 127.72 800.752 127.72C797.136 127.72 794.048 126.568 791.488 124.264C788.928 121.96 787.648 118.84 787.648 114.904ZM810.361 127V124.456L814.441 123.496V92.968H810.361V90.424L818.041 88.6H821.833V123.496L825.913 124.456V127H810.361ZM827.041 105.544V103H838.513V119.56C838.513 121.192 838.705 122.328 839.089 122.968C839.505 123.576 840.321 123.88 841.537 123.88C842.465 123.88 843.425 123.64 844.417 123.16C845.409 122.68 846.209 122.04 846.817 121.24V106.504L843.697 105.544V103H854.257V123.4H858.001V125.464C857.297 125.944 856.721 126.296 856.273 126.52C855.857 126.712 855.377 126.904 854.833 127.096C854.321 127.32 853.777 127.48 853.201 127.576C852.657 127.672 852.145 127.72 851.665 127.72C849.361 127.72 847.745 126.68 846.817 124.6C844.545 126.68 841.761 127.72 838.465 127.72C833.569 127.72 831.121 125.208 831.121 120.184V106.504L827.041 105.544ZM860.641 126.616V119.752H863.329L865.057 124.504C866.209 124.568 867.121 124.6 867.793 124.6C871.537 124.6 873.409 123.784 873.409 122.152C873.409 121.48 873.073 120.904 872.401 120.424C871.729 119.912 871.089 119.512 870.481 119.224C869.873 118.936 868.721 118.424 867.025 117.688C864.817 116.728 863.201 115.64 862.177 114.424C861.185 113.176 860.689 111.576 860.689 109.624C860.689 107.224 861.649 105.4 863.569 104.152C865.521 102.904 868.065 102.28 871.201 102.28C874.049 102.28 876.497 102.584 878.545 103.192V109.72H876.049L874.561 105.496C873.601 105.336 872.641 105.256 871.681 105.256C868.609 105.256 867.073 106.008 867.073 107.512C867.073 107.896 867.217 108.296 867.505 108.712C867.793 109.128 868.305 109.544 869.041 109.96C869.809 110.376 871.009 110.936 872.641 111.64C875.553 112.952 877.521 114.232 878.545 115.48C879.569 116.696 880.081 118.344 880.081 120.424C880.081 122.792 879.105 124.6 877.153 125.848C875.201 127.096 872.609 127.72 869.377 127.72C866.337 127.72 863.425 127.352 860.641 126.616ZM883.174 127V124.456L887.254 123.496V107.368H883.174V104.824L890.854 103H894.646V123.496L898.726 124.456V127H883.174ZM886.486 95.608C886.486 94.36 886.918 93.32 887.782 92.488C888.646 91.624 889.702 91.192 890.95 91.192C892.23 91.192 893.286 91.624 894.118 92.488C894.982 93.32 895.414 94.36 895.414 95.608C895.414 96.888 894.982 97.96 894.118 98.824C893.286 99.688 892.23 100.12 890.95 100.12C889.702 100.12 888.646 99.688 887.782 98.824C886.918 97.96 886.486 96.888 886.486 95.608ZM898.745 105.544V103H913.434V105.544L910.17 106.312L915.018 117.784L919.77 106.36L916.602 105.544V103H927.018V105.544L922.986 106.6L914.442 127.336H911.082L902.202 106.552L898.745 105.544ZM927.805 114.712C927.805 110.936 928.861 107.928 930.973 105.688C933.117 103.416 936.013 102.28 939.661 102.28C943.373 102.28 946.173 103.544 948.061 106.072C949.981 108.6 950.941 111.72 950.941 115.432H935.197C935.421 117.8 936.269 119.848 937.741 121.576C939.213 123.272 941.101 124.12 943.405 124.12C945.133 124.12 946.989 123.752 948.973 123.016L949.981 125.752C947.005 127.064 944.093 127.72 941.245 127.72C937.117 127.72 933.837 126.52 931.405 124.12C929.005 121.688 927.805 118.552 927.805 114.712ZM935.197 112.456L943.309 111.928C943.309 111.16 943.261 110.456 943.165 109.816C943.069 109.144 942.797 108.344 942.349 107.416C941.549 106.072 940.605 105.4 939.517 105.4C938.237 105.4 937.181 106.056 936.349 107.368C935.869 108.168 935.549 109.048 935.389 110.008C935.229 110.968 935.165 111.784 935.197 112.456ZM479.586 177.864C479.586 173.544 480.946 170.2 483.666 167.832C486.418 165.464 489.762 164.28 493.698 164.28C494.69 164.28 495.618 164.376 496.482 164.568V154.968H492.402V152.424L500.082 150.6H503.922V185.4H507.666V187.464C507.474 187.624 507.202 187.832 506.85 188.088C506.53 188.344 505.874 188.68 504.882 189.096C503.89 189.512 502.946 189.72 502.05 189.72C500.706 189.72 499.57 189.4 498.642 188.76C497.746 188.12 497.106 187.432 496.722 186.696C494.962 188.712 492.802 189.72 490.242 189.72C487.33 189.72 484.818 188.712 482.706 186.696C480.626 184.648 479.586 181.704 479.586 177.864ZM487.17 177.672C487.17 180.296 487.73 182.28 488.85 183.624C490.002 184.968 491.138 185.64 492.258 185.64C493.858 185.64 495.266 185.048 496.482 183.864V167.736C495.586 167.512 494.802 167.4 494.13 167.4C492.018 167.4 490.322 168.248 489.042 169.944C487.794 171.608 487.17 174.184 487.17 177.672ZM510.008 176.712C510.008 172.936 511.064 169.928 513.176 167.688C515.32 165.416 518.216 164.28 521.864 164.28C525.576 164.28 528.376 165.544 530.264 168.072C532.184 170.6 533.144 173.72 533.144 177.432H517.4C517.624 179.8 518.472 181.848 519.944 183.576C521.416 185.272 523.304 186.12 525.608 186.12C527.336 186.12 529.192 185.752 531.176 185.016L532.184 187.752C529.208 189.064 526.296 189.72 523.448 189.72C519.32 189.72 516.04 188.52 513.608 186.12C511.208 183.688 510.008 180.552 510.008 176.712ZM517.4 174.456L525.512 173.928C525.512 173.16 525.464 172.456 525.368 171.816C525.272 171.144 525 170.344 524.552 169.416C523.752 168.072 522.808 167.4 521.72 167.4C520.44 167.4 519.384 168.056 518.552 169.368C518.072 170.168 517.752 171.048 517.592 172.008C517.432 172.968 517.368 173.784 517.4 174.456ZM535.924 183.048C535.924 180.264 537.06 178.152 539.332 176.712C541.636 175.24 545.348 174.504 550.468 174.504V173.064C550.468 172.104 550.452 171.416 550.42 171C550.42 170.552 550.356 170.024 550.228 169.416C550.1 168.808 549.908 168.376 549.652 168.12C549.428 167.864 549.076 167.64 548.596 167.448C548.116 167.224 547.524 167.112 546.82 167.112L540.724 172.392C538.548 171.144 537.46 169.208 537.46 166.584L538.9 165.96C539.508 165.704 540.692 165.368 542.452 164.952C544.212 164.504 545.924 164.28 547.588 164.28C554.468 164.28 557.908 167.032 557.908 172.536V185.4H561.652V187.464C561.492 187.624 561.268 187.832 560.98 188.088C560.692 188.344 560.068 188.68 559.108 189.096C558.148 189.512 557.156 189.72 556.132 189.72C553.7 189.72 551.892 188.904 550.708 187.272C548.564 188.904 546.228 189.72 543.7 189.72C541.492 189.72 539.636 189.16 538.132 188.04C536.66 186.92 535.924 185.256 535.924 183.048ZM543.652 182.616C543.652 183.544 543.956 184.28 544.564 184.824C545.204 185.368 545.972 185.64 546.868 185.64C548.308 185.64 549.508 185.112 550.468 184.056V177.48C548.676 177.48 547.092 177.96 545.716 178.92C544.34 179.848 543.652 181.08 543.652 182.616ZM562.673 189V186.456L566.753 185.496V154.968H562.673V152.424L570.353 150.6H574.145V185.496L578.225 186.456V189H562.673ZM580.938 188.616V181.752H583.626L585.354 186.504C586.506 186.568 587.418 186.6 588.09 186.6C591.834 186.6 593.706 185.784 593.706 184.152C593.706 183.48 593.37 182.904 592.698 182.424C592.026 181.912 591.386 181.512 590.778 181.224C590.17 180.936 589.018 180.424 587.322 179.688C585.114 178.728 583.498 177.64 582.474 176.424C581.482 175.176 580.986 173.576 580.986 171.624C580.986 169.224 581.946 167.4 583.866 166.152C585.818 164.904 588.362 164.28 591.498 164.28C594.346 164.28 596.794 164.584 598.842 165.192V171.72H596.346L594.858 167.496C593.898 167.336 592.938 167.256 591.978 167.256C588.906 167.256 587.37 168.008 587.37 169.512C587.37 169.896 587.514 170.296 587.802 170.712C588.09 171.128 588.602 171.544 589.338 171.96C590.106 172.376 591.306 172.936 592.938 173.64C595.85 174.952 597.818 176.232 598.842 177.48C599.866 178.696 600.378 180.344 600.378 182.424C600.378 184.792 599.402 186.6 597.45 187.848C595.498 189.096 592.906 189.72 589.674 189.72C586.634 189.72 583.722 189.352 580.938 188.616ZM614.447 181.032C614.447 177 616.879 173.816 621.743 171.48C620.207 169.752 619.103 168.216 618.431 166.872C617.759 165.496 617.423 164.008 617.423 162.408C617.423 160.008 618.287 158.12 620.015 156.744C621.775 155.368 624.207 154.68 627.311 154.68C630.351 154.68 632.735 155.416 634.463 156.888C636.223 158.328 637.103 160.104 637.103 162.216C637.103 165.672 634.767 168.648 630.095 171.144L637.199 178.152C637.775 176.776 638.191 175.224 638.447 173.496L635.567 172.44V169.8H645.887V172.44L641.807 173.496C641.423 176.088 640.719 178.44 639.695 180.552L644.495 185.112L649.823 186.36V189H639.839L636.287 185.592C633.599 188.344 630.207 189.72 626.111 189.72C622.431 189.72 619.567 188.968 617.519 187.464C615.471 185.96 614.447 183.816 614.447 181.032ZM621.023 180.696C621.023 182.36 621.551 183.688 622.607 184.68C623.663 185.64 625.071 186.12 626.831 186.12C629.711 186.12 632.079 185.192 633.935 183.336L624.287 174.12C622.111 175.976 621.023 178.168 621.023 180.696ZM623.567 161.88C623.567 162.584 623.711 163.272 623.999 163.944C624.287 164.584 624.703 165.24 625.247 165.912L627.599 168.456C629.839 166.664 630.959 164.52 630.959 162.024C630.959 160.744 630.623 159.736 629.951 159C629.279 158.264 628.367 157.896 627.215 157.896C626.127 157.896 625.247 158.248 624.575 158.952C623.903 159.656 623.567 160.632 623.567 161.88ZM675.028 189.72C673.204 189.72 671.492 189.4 669.892 188.76C668.324 188.12 666.964 187.24 665.812 186.12C664.66 185 663.748 183.656 663.076 182.088C662.404 180.52 662.068 178.808 662.068 176.952C662.068 175.096 662.404 173.4 663.076 171.864C663.748 170.296 664.66 168.952 665.812 167.832C666.964 166.712 668.324 165.848 669.892 165.24C671.492 164.6 673.204 164.28 675.028 164.28C676.852 164.28 678.548 164.6 680.116 165.24C681.684 165.848 683.044 166.712 684.196 167.832C685.38 168.952 686.292 170.296 686.932 171.864C687.604 173.4 687.94 175.096 687.94 176.952C687.94 178.776 687.604 180.472 686.932 182.04C686.292 183.608 685.38 184.968 684.196 186.12C683.044 187.24 681.684 188.12 680.116 188.76C678.548 189.4 676.852 189.72 675.028 189.72ZM669.796 176.952C669.796 179.96 670.228 182.328 671.092 184.056C671.988 185.752 673.3 186.6 675.028 186.6C676.756 186.6 678.052 185.752 678.916 184.056C679.812 182.328 680.26 179.96 680.26 176.952C680.26 173.976 679.812 171.64 678.916 169.944C678.052 168.248 676.756 167.4 675.028 167.4C673.3 167.4 671.988 168.248 671.092 169.944C670.228 171.64 669.796 173.976 669.796 176.952ZM690.655 189V186.456L694.735 185.496V168.072H690.703V165.336L694.735 165.048V161.448C694.735 157.704 695.583 154.84 697.279 152.856C699.007 150.872 701.471 149.88 704.671 149.88C706.015 149.88 707.423 150.024 708.895 150.312C710.367 150.568 711.503 150.824 712.303 151.08L713.503 151.464C713.535 152.584 713.263 153.688 712.687 154.776C712.143 155.832 711.439 156.584 710.575 157.032L706.591 153C705.951 153 705.391 153.096 704.911 153.288C704.463 153.48 703.999 153.848 703.519 154.392C703.071 154.936 702.719 155.8 702.463 156.984C702.239 158.168 702.127 159.656 702.127 161.448V164.568L708.703 164.136V168.072H702.127V185.496L707.791 186.456V189H690.655ZM711.046 189V186.456L715.126 185.496V168.072H711.094V165.336L715.126 165.048V161.448C715.126 157.704 715.974 154.84 717.67 152.856C719.398 150.872 721.862 149.88 725.062 149.88C726.406 149.88 727.814 150.024 729.286 150.312C730.758 150.568 731.894 150.824 732.694 151.08L733.894 151.464C733.926 152.584 733.654 153.688 733.078 154.776C732.534 155.832 731.83 156.584 730.966 157.032L726.982 153C726.342 153 725.782 153.096 725.302 153.288C724.854 153.48 724.39 153.848 723.91 154.392C723.462 154.936 723.11 155.8 722.854 156.984C722.63 158.168 722.518 159.656 722.518 161.448V164.568L729.094 164.136V168.072H722.518V185.496L728.182 186.456V189H711.046ZM731.211 176.712C731.211 172.936 732.267 169.928 734.379 167.688C736.523 165.416 739.419 164.28 743.067 164.28C746.779 164.28 749.579 165.544 751.467 168.072C753.387 170.6 754.347 173.72 754.347 177.432H738.603C738.827 179.8 739.675 181.848 741.147 183.576C742.619 185.272 744.507 186.12 746.811 186.12C748.539 186.12 750.395 185.752 752.379 185.016L753.387 187.752C750.411 189.064 747.499 189.72 744.651 189.72C740.523 189.72 737.243 188.52 734.811 186.12C732.411 183.688 731.211 180.552 731.211 176.712ZM738.603 174.456L746.715 173.928C746.715 173.16 746.667 172.456 746.571 171.816C746.475 171.144 746.203 170.344 745.755 169.416C744.955 168.072 744.011 167.4 742.923 167.4C741.643 167.4 740.587 168.056 739.755 169.368C739.275 170.168 738.955 171.048 738.795 172.008C738.635 172.968 738.571 173.784 738.603 174.456ZM757.128 189V186.456L761.208 185.496V169.368H757.128V166.824L764.808 165H768.6V167.88C771 165.48 773.848 164.28 777.144 164.28C777.336 164.888 777.432 165.56 777.432 166.296C777.432 167.768 777.272 169.144 776.952 170.424L770.904 169.416C770.136 169.768 769.368 170.28 768.6 170.952V185.496L773.64 186.456V189H757.128Z" fill="white"/>
<rect x="289" y="268" width="674" height="68" rx="10" fill="white"/>
<path d="M340.355 298.032V301.76H344.419V302.96H340.355V306.8H344.899V308H338.899V296.832H344.899V298.032H340.355ZM351.374 299.072C352.441 299.072 353.305 299.397 353.966 300.048C354.627 300.688 354.958 301.616 354.958 302.832V308H353.518V303.04C353.518 302.165 353.299 301.499 352.862 301.04C352.425 300.571 351.827 300.336 351.07 300.336C350.302 300.336 349.689 300.576 349.23 301.056C348.782 301.536 348.558 302.235 348.558 303.152V308H347.102V299.232H348.558V300.48C348.846 300.032 349.235 299.685 349.726 299.44C350.227 299.195 350.777 299.072 351.374 299.072ZM359.112 300.432V305.6C359.112 306.027 359.203 306.331 359.384 306.512C359.566 306.683 359.88 306.768 360.328 306.768H361.4V308H360.088C359.278 308 358.67 307.813 358.264 307.44C357.859 307.067 357.656 306.453 357.656 305.6V300.432H356.52V299.232H357.656V297.024H359.112V299.232H361.4V300.432H359.112ZM371.164 303.28C371.164 303.557 371.148 303.851 371.116 304.16H364.108C364.162 305.024 364.455 305.701 364.988 306.192C365.532 306.672 366.188 306.912 366.956 306.912C367.586 306.912 368.108 306.768 368.524 306.48C368.951 306.181 369.25 305.787 369.42 305.296H370.988C370.754 306.139 370.284 306.827 369.58 307.36C368.876 307.883 368.002 308.144 366.956 308.144C366.124 308.144 365.378 307.957 364.716 307.584C364.066 307.211 363.554 306.683 363.18 306C362.807 305.307 362.62 304.507 362.62 303.6C362.62 302.693 362.802 301.899 363.164 301.216C363.527 300.533 364.034 300.011 364.684 299.648C365.346 299.275 366.103 299.088 366.956 299.088C367.788 299.088 368.524 299.269 369.164 299.632C369.804 299.995 370.295 300.496 370.636 301.136C370.988 301.765 371.164 302.48 371.164 303.28ZM369.66 302.976C369.66 302.421 369.538 301.947 369.292 301.552C369.047 301.147 368.711 300.843 368.284 300.64C367.868 300.427 367.404 300.32 366.892 300.32C366.156 300.32 365.527 300.555 365.004 301.024C364.492 301.493 364.199 302.144 364.124 302.976H369.66ZM374.542 300.656C374.798 300.155 375.161 299.765 375.63 299.488C376.11 299.211 376.692 299.072 377.374 299.072V300.576H376.99C375.358 300.576 374.542 301.461 374.542 303.232V308H373.086V299.232H374.542V300.656ZM390.873 299.232L385.593 312.128H384.089L385.817 307.904L382.281 299.232H383.897L386.649 306.336L389.369 299.232H390.873ZM396.16 308.144C395.339 308.144 394.592 307.957 393.92 307.584C393.259 307.211 392.736 306.683 392.352 306C391.979 305.307 391.792 304.507 391.792 303.6C391.792 302.704 391.984 301.915 392.368 301.232C392.763 300.539 393.296 300.011 393.968 299.648C394.64 299.275 395.392 299.088 396.224 299.088C397.056 299.088 397.808 299.275 398.48 299.648C399.152 300.011 399.68 300.533 400.064 301.216C400.459 301.899 400.656 302.693 400.656 303.6C400.656 304.507 400.454 305.307 400.048 306C399.654 306.683 399.115 307.211 398.432 307.584C397.75 307.957 396.992 308.144 396.16 308.144ZM396.16 306.864C396.683 306.864 397.174 306.741 397.632 306.496C398.091 306.251 398.459 305.883 398.736 305.392C399.024 304.901 399.168 304.304 399.168 303.6C399.168 302.896 399.03 302.299 398.752 301.808C398.475 301.317 398.112 300.955 397.664 300.72C397.216 300.475 396.731 300.352 396.208 300.352C395.675 300.352 395.184 300.475 394.736 300.72C394.299 300.955 393.947 301.317 393.68 301.808C393.414 302.299 393.28 302.896 393.28 303.6C393.28 304.315 393.408 304.917 393.664 305.408C393.931 305.899 394.283 306.267 394.72 306.512C395.158 306.747 395.638 306.864 396.16 306.864ZM410.347 299.232V308H408.891V306.704C408.613 307.152 408.224 307.504 407.723 307.76C407.232 308.005 406.688 308.128 406.091 308.128C405.408 308.128 404.795 307.989 404.251 307.712C403.707 307.424 403.275 306.997 402.955 306.432C402.645 305.867 402.491 305.179 402.491 304.368V299.232H403.931V304.176C403.931 305.04 404.149 305.707 404.587 306.176C405.024 306.635 405.621 306.864 406.379 306.864C407.157 306.864 407.771 306.624 408.219 306.144C408.667 305.664 408.891 304.965 408.891 304.048V299.232H410.347ZM414.261 300.656C414.517 300.155 414.88 299.765 415.349 299.488C415.829 299.211 416.41 299.072 417.093 299.072V300.576H416.709C415.077 300.576 414.261 301.461 414.261 303.232V308H412.805V299.232H414.261V300.656ZM433.583 299.072C434.266 299.072 434.874 299.216 435.407 299.504C435.941 299.781 436.362 300.203 436.671 300.768C436.981 301.333 437.135 302.021 437.135 302.832V308H435.695V303.04C435.695 302.165 435.477 301.499 435.039 301.04C434.613 300.571 434.031 300.336 433.295 300.336C432.538 300.336 431.935 300.581 431.487 301.072C431.039 301.552 430.815 302.251 430.815 303.168V308H429.375V303.04C429.375 302.165 429.157 301.499 428.719 301.04C428.293 300.571 427.711 300.336 426.975 300.336C426.218 300.336 425.615 300.581 425.167 301.072C424.719 301.552 424.495 302.251 424.495 303.168V308H423.039V299.232H424.495V300.496C424.783 300.037 425.167 299.685 425.647 299.44C426.138 299.195 426.677 299.072 427.263 299.072C427.999 299.072 428.65 299.237 429.215 299.568C429.781 299.899 430.202 300.384 430.479 301.024C430.725 300.405 431.13 299.925 431.695 299.584C432.261 299.243 432.89 299.072 433.583 299.072ZM438.98 303.584C438.98 302.688 439.161 301.904 439.524 301.232C439.886 300.549 440.382 300.021 441.012 299.648C441.652 299.275 442.361 299.088 443.14 299.088C443.908 299.088 444.574 299.253 445.14 299.584C445.705 299.915 446.126 300.331 446.404 300.832V299.232H447.876V308H446.404V306.368C446.116 306.88 445.684 307.307 445.108 307.648C444.542 307.979 443.881 308.144 443.124 308.144C442.345 308.144 441.641 307.952 441.012 307.568C440.382 307.184 439.886 306.645 439.524 305.952C439.161 305.259 438.98 304.469 438.98 303.584ZM446.404 303.6C446.404 302.939 446.27 302.363 446.004 301.872C445.737 301.381 445.374 301.008 444.916 300.752C444.468 300.485 443.972 300.352 443.428 300.352C442.884 300.352 442.388 300.48 441.94 300.736C441.492 300.992 441.134 301.365 440.868 301.856C440.601 302.347 440.468 302.923 440.468 303.584C440.468 304.256 440.601 304.843 440.868 305.344C441.134 305.835 441.492 306.213 441.94 306.48C442.388 306.736 442.884 306.864 443.428 306.864C443.972 306.864 444.468 306.736 444.916 306.48C445.374 306.213 445.737 305.835 446.004 305.344C446.27 304.843 446.404 304.261 446.404 303.6ZM451.088 297.808C450.811 297.808 450.576 297.712 450.384 297.52C450.192 297.328 450.096 297.093 450.096 296.816C450.096 296.539 450.192 296.304 450.384 296.112C450.576 295.92 450.811 295.824 451.088 295.824C451.355 295.824 451.579 295.92 451.76 296.112C451.952 296.304 452.048 296.539 452.048 296.816C452.048 297.093 451.952 297.328 451.76 297.52C451.579 297.712 451.355 297.808 451.088 297.808ZM451.792 299.232V308H450.336V299.232H451.792ZM455.73 296.16V308H454.274V296.16H455.73Z" fill="#999999"/>
<path d="M314.556 299.333L319.289 302.883C319.645 303.15 320.133 303.15 320.489 302.883L325.222 299.333" stroke="#999999" stroke-linecap="round"/>
<rect x="311.5" y="294.5" width="17.6667" height="15" rx="4.5" stroke="#999999"/>
<rect x="822" y="277" width="132" height="50" rx="8" fill="#FA7436"/>
<path d="M852.768 308.112C852.032 308.112 851.37 307.984 850.784 307.728C850.208 307.461 849.754 307.099 849.424 306.64C849.093 306.171 848.922 305.632 848.912 305.024H850.464C850.517 305.547 850.73 305.989 851.104 306.352C851.488 306.704 852.042 306.88 852.768 306.88C853.461 306.88 854.005 306.709 854.4 306.368C854.805 306.016 855.008 305.568 855.008 305.024C855.008 304.597 854.89 304.251 854.656 303.984C854.421 303.717 854.128 303.515 853.776 303.376C853.424 303.237 852.949 303.088 852.352 302.928C851.616 302.736 851.024 302.544 850.576 302.352C850.138 302.16 849.76 301.861 849.44 301.456C849.13 301.04 848.976 300.485 848.976 299.792C848.976 299.184 849.13 298.645 849.44 298.176C849.749 297.707 850.181 297.344 850.736 297.088C851.301 296.832 851.946 296.704 852.672 296.704C853.717 296.704 854.57 296.965 855.232 297.488C855.904 298.011 856.282 298.704 856.368 299.568H854.768C854.714 299.141 854.49 298.768 854.096 298.448C853.701 298.117 853.178 297.952 852.528 297.952C851.92 297.952 851.424 298.112 851.04 298.432C850.656 298.741 850.464 299.179 850.464 299.744C850.464 300.149 850.576 300.48 850.8 300.736C851.034 300.992 851.317 301.189 851.648 301.328C851.989 301.456 852.464 301.605 853.072 301.776C853.808 301.979 854.4 302.181 854.848 302.384C855.296 302.576 855.68 302.88 856 303.296C856.32 303.701 856.48 304.256 856.48 304.96C856.48 305.504 856.336 306.016 856.048 306.496C855.76 306.976 855.333 307.365 854.768 307.664C854.202 307.963 853.536 308.112 852.768 308.112ZM866.398 299.232V308H864.942V306.704C864.665 307.152 864.276 307.504 863.774 307.76C863.284 308.005 862.74 308.128 862.142 308.128C861.46 308.128 860.846 307.989 860.302 307.712C859.758 307.424 859.326 306.997 859.006 306.432C858.697 305.867 858.542 305.179 858.542 304.368V299.232H859.982V304.176C859.982 305.04 860.201 305.707 860.638 306.176C861.076 306.635 861.673 306.864 862.43 306.864C863.209 306.864 863.822 306.624 864.27 306.144C864.718 305.664 864.942 304.965 864.942 304.048V299.232H866.398ZM870.313 300.864C870.611 300.341 871.049 299.915 871.625 299.584C872.201 299.253 872.857 299.088 873.593 299.088C874.382 299.088 875.091 299.275 875.721 299.648C876.35 300.021 876.846 300.549 877.209 301.232C877.571 301.904 877.753 302.688 877.753 303.584C877.753 304.469 877.571 305.259 877.209 305.952C876.846 306.645 876.345 307.184 875.705 307.568C875.075 307.952 874.371 308.144 873.593 308.144C872.835 308.144 872.169 307.979 871.593 307.648C871.027 307.317 870.601 306.896 870.313 306.384V308H868.857V296.16H870.313V300.864ZM876.265 303.584C876.265 302.923 876.131 302.347 875.865 301.856C875.598 301.365 875.235 300.992 874.777 300.736C874.329 300.48 873.833 300.352 873.289 300.352C872.755 300.352 872.259 300.485 871.801 300.752C871.353 301.008 870.99 301.387 870.713 301.888C870.446 302.379 870.313 302.949 870.313 303.6C870.313 304.261 870.446 304.843 870.713 305.344C870.99 305.835 871.353 306.213 871.801 306.48C872.259 306.736 872.755 306.864 873.289 306.864C873.833 306.864 874.329 306.736 874.777 306.48C875.235 306.213 875.598 305.835 875.865 305.344C876.131 304.843 876.265 304.256 876.265 303.584ZM882.773 308.144C882.101 308.144 881.499 308.032 880.965 307.808C880.432 307.573 880.011 307.253 879.701 306.848C879.392 306.432 879.221 305.957 879.189 305.424H880.693C880.736 305.861 880.939 306.219 881.301 306.496C881.675 306.773 882.16 306.912 882.757 306.912C883.312 306.912 883.749 306.789 884.069 306.544C884.389 306.299 884.549 305.989 884.549 305.616C884.549 305.232 884.379 304.949 884.037 304.768C883.696 304.576 883.168 304.389 882.453 304.208C881.803 304.037 881.269 303.867 880.853 303.696C880.448 303.515 880.096 303.253 879.797 302.912C879.509 302.56 879.365 302.101 879.365 301.536C879.365 301.088 879.499 300.677 879.765 300.304C880.032 299.931 880.411 299.637 880.901 299.424C881.392 299.2 881.952 299.088 882.581 299.088C883.552 299.088 884.336 299.333 884.933 299.824C885.531 300.315 885.851 300.987 885.893 301.84H884.437C884.405 301.381 884.219 301.013 883.877 300.736C883.547 300.459 883.099 300.32 882.533 300.32C882.011 300.32 881.595 300.432 881.285 300.656C880.976 300.88 880.821 301.173 880.821 301.536C880.821 301.824 880.912 302.064 881.093 302.256C881.285 302.437 881.52 302.587 881.797 302.704C882.085 302.811 882.48 302.933 882.981 303.072C883.611 303.243 884.123 303.413 884.517 303.584C884.912 303.744 885.248 303.989 885.525 304.32C885.813 304.651 885.963 305.083 885.973 305.616C885.973 306.096 885.84 306.528 885.573 306.912C885.307 307.296 884.928 307.6 884.437 307.824C883.957 308.037 883.403 308.144 882.773 308.144ZM887.485 303.6C887.485 302.693 887.666 301.904 888.029 301.232C888.391 300.549 888.893 300.021 889.533 299.648C890.183 299.275 890.925 299.088 891.757 299.088C892.834 299.088 893.719 299.349 894.413 299.872C895.117 300.395 895.581 301.12 895.805 302.048H894.237C894.087 301.515 893.794 301.093 893.357 300.784C892.93 300.475 892.397 300.32 891.757 300.32C890.925 300.32 890.253 300.608 889.741 301.184C889.229 301.749 888.973 302.555 888.973 303.6C888.973 304.656 889.229 305.472 889.741 306.048C890.253 306.624 890.925 306.912 891.757 306.912C892.397 306.912 892.93 306.763 893.357 306.464C893.783 306.165 894.077 305.739 894.237 305.184H895.805C895.57 306.08 895.101 306.8 894.397 307.344C893.693 307.877 892.813 308.144 891.757 308.144C890.925 308.144 890.183 307.957 889.533 307.584C888.893 307.211 888.391 306.683 888.029 306C887.666 305.317 887.485 304.517 887.485 303.6ZM899.203 300.656C899.459 300.155 899.822 299.765 900.291 299.488C900.771 299.211 901.353 299.072 902.035 299.072V300.576H901.651C900.019 300.576 899.203 301.461 899.203 303.232V308H897.747V299.232H899.203V300.656ZM904.468 297.808C904.191 297.808 903.956 297.712 903.764 297.52C903.572 297.328 903.476 297.093 903.476 296.816C903.476 296.539 903.572 296.304 903.764 296.112C903.956 295.92 904.191 295.824 904.468 295.824C904.735 295.824 904.959 295.92 905.14 296.112C905.332 296.304 905.428 296.539 905.428 296.816C905.428 297.093 905.332 297.328 905.14 297.52C904.959 297.712 904.735 297.808 904.468 297.808ZM905.172 299.232V308H903.716V299.232H905.172ZM909.11 300.864C909.408 300.341 909.846 299.915 910.422 299.584C910.998 299.253 911.654 299.088 912.39 299.088C913.179 299.088 913.888 299.275 914.518 299.648C915.147 300.021 915.643 300.549 916.006 301.232C916.368 301.904 916.55 302.688 916.55 303.584C916.55 304.469 916.368 305.259 916.006 305.952C915.643 306.645 915.142 307.184 914.502 307.568C913.872 307.952 913.168 308.144 912.39 308.144C911.632 308.144 910.966 307.979 910.39 307.648C909.824 307.317 909.398 306.896 909.11 306.384V308H907.654V296.16H909.11V300.864ZM915.062 303.584C915.062 302.923 914.928 302.347 914.662 301.856C914.395 301.365 914.032 300.992 913.574 300.736C913.126 300.48 912.63 300.352 912.086 300.352C911.552 300.352 911.056 300.485 910.598 300.752C910.15 301.008 909.787 301.387 909.51 301.888C909.243 302.379 909.11 302.949 909.11 303.6C909.11 304.261 909.243 304.843 909.51 305.344C909.787 305.835 910.15 306.213 910.598 306.48C911.056 306.736 911.552 306.864 912.086 306.864C912.63 306.864 913.126 306.736 913.574 306.48C914.032 306.213 914.395 305.835 914.662 305.344C914.928 304.843 915.062 304.256 915.062 303.584ZM926.466 303.28C926.466 303.557 926.45 303.851 926.418 304.16H919.41C919.463 305.024 919.757 305.701 920.29 306.192C920.834 306.672 921.49 306.912 922.258 306.912C922.887 306.912 923.41 306.768 923.826 306.48C924.253 306.181 924.551 305.787 924.722 305.296H926.29C926.055 306.139 925.586 306.827 924.882 307.36C924.178 307.883 923.303 308.144 922.258 308.144C921.426 308.144 920.679 307.957 920.018 307.584C919.367 307.211 918.855 306.683 918.482 306C918.109 305.307 917.922 304.507 917.922 303.6C917.922 302.693 918.103 301.899 918.466 301.216C918.829 300.533 919.335 300.011 919.986 299.648C920.647 299.275 921.405 299.088 922.258 299.088C923.09 299.088 923.826 299.269 924.466 299.632C925.106 299.995 925.597 300.496 925.938 301.136C926.29 301.765 926.466 302.48 926.466 303.28ZM924.962 302.976C924.962 302.421 924.839 301.947 924.594 301.552C924.349 301.147 924.013 300.843 923.586 300.64C923.17 300.427 922.706 300.32 922.194 300.32C921.458 300.32 920.829 300.555 920.306 301.024C919.794 301.493 919.501 302.144 919.426 302.976H924.962Z" fill="white"/>
<defs>
<linearGradient id="paint0_linear_1_399" x1="739.035" y1="68.4669" x2="490.704" y2="539.066" gradientUnits="userSpaceOnUse">
<stop stop-color="#747DEF"/>
<stop offset="1" stop-color="#5E3BE1"/>
</linearGradient>
</defs>
</svg>
